<?xml version="1.0" standalone="no"?><!DOCTYPE svg PUBLIC "-//W3C//DTD SVG 1.1//EN" "http://www.w3.org/Graphics/SVG/1.1/DTD/svg11.dtd"><svg height="1024" node-id="1" sillyvg="true" template-height="1024" template-width="1024" version="1.1" viewBox="0 0 1024 1024" width="1024" xmlns="http://www.w3.org/2000/svg" xmlns:xlink="http://www.w3.org/1999/xlink"><defs node-id="87"></defs><path d="M 0.00 0.00 L 1024.00 0.00 L 1024.00 1024.00 L 0.00 1024.00 Z" fill="#ffffff" fill-rule="nonzero" node-id="89" stroke="none" target-height="1024" target-width="1024" target-x="0" target-y="0"></path><path d="M 436.20 178.70 L 597.90 178.80 L 598.00 273.80 L 597.90 368.80 L 436.20 368.70 L 436.20 178.70 Z M 499.90 219.20 L 500.00 254.70 L 471.50 254.70 L 471.50 284.80 L 499.90 284.90 L 499.90 315.70 L 527.70 315.80 L 527.80 284.80 L 556.60 284.90 L 556.70 254.70 L 528.00 254.60 L 527.70 219.30 L 499.90 219.20 Z" fill="#ffffff" fill-rule="nonzero" node-id="91" stroke="none" target-height="190.09999" target-width="161.79999" target-x="436.2" target-y="178.7"></path><path d="M 325.70 223.70 L 348.50 223.70 L 348.40 295.90 L 326.30 296.10 L 325.70 223.70 Z" fill="#ffffff" fill-rule="nonzero" node-id="93" stroke="none" target-height="72.40001" target-width="22.799988" target-x="325.7" target-y="223.7"></path><path d="M 653.30 223.70 L 669.80 223.60 L 669.80 296.00 L 653.20 296.00 L 653.30 223.70 Z" fill="#ffffff" fill-rule="nonzero" node-id="95" stroke="none" target-height="72.399994" target-width="16.599976" target-x="653.2" target-y="223.6"></path><path d="M 675.60 223.60 L 694.00 223.60 L 694.10 296.00 L 676.10 296.00 L 675.60 277.90 L 675.60 223.60 Z" fill="#ffffff" fill-rule="nonzero" node-id="97" stroke="none" target-height="72.399994" target-width="18.5" target-x="675.6" target-y="223.6"></path><path d="M 700.10 223.60 L 720.90 223.60 L 720.80 295.90 L 700.00 295.90 L 700.10 223.60 Z" fill="#ffffff" fill-rule="nonzero" node-id="99" stroke="none" target-height="72.29999" target-width="20.900024" target-x="700" target-y="223.6"></path><path d="M 743.30 223.60 L 762.30 223.70 L 762.30 259.90 L 762.30 296.00 L 743.30 296.00 L 743.30 223.60 Z" fill="#ffffff" fill-rule="nonzero" node-id="101" stroke="none" target-height="72.399994" target-width="19" target-x="743.3" target-y="223.6"></path><path d="M 768.60 223.60 L 786.30 223.60 L 786.30 295.90 L 768.50 295.90 L 768.30 247.70 L 768.60 223.60 Z" fill="#ffffff" fill-rule="nonzero" node-id="103" stroke="none" target-height="72.29999" target-width="18" target-x="768.3" target-y="223.6"></path><path d="M 792.30 223.60 L 808.60 223.60 L 808.60 296.00 L 792.40 295.90 L 792.30 223.60 Z" fill="#ffffff" fill-rule="nonzero" node-id="105" stroke="none" target-height="72.399994" target-width="16.299988" target-x="792.3" target-y="223.6"></path><path d="M 307.70 235.30 L 316.60 237.70 L 305.30 296.00 L 295.70 296.00 L 307.70 235.30 Z" fill="#ffffff" fill-rule="nonzero" node-id="107" stroke="none" target-height="60.699997" target-width="20.899994" target-x="295.7" target-y="235.3"></path><path d="M 319.30 252.10 L 320.00 263.10 L 320.10 296.10 L 311.00 295.90 L 315.50 274.10 L 319.30 252.10 Z" fill="#ffffff" fill-rule="nonzero" node-id="109" stroke="none" target-height="44" target-width="9.100006" target-x="311" target-y="252.1"></path><path d="M 172.10 398.10 L 179.20 392.00 L 187.20 387.00 L 191.50 385.00 L 195.90 383.50 L 200.50 382.40 L 205.10 381.80 L 209.90 381.70 L 207.90 386.70 L 206.50 388.90 L 203.90 391.80 L 200.90 394.40 L 197.60 396.70 L 190.20 400.70 L 181.90 404.00 L 177.60 405.00 L 173.20 405.60 L 168.70 405.60 L 168.30 404.00 L 168.60 402.70 L 169.20 401.50 L 172.10 398.10 Z" fill="#ffffff" fill-rule="nonzero" node-id="111" stroke="none" target-height="23.899994" target-width="41.59999" target-x="168.3" target-y="381.7"></path><path d="M 686.60 427.50 L 709.90 427.50 L 709.70 440.50 L 709.30 444.80 L 708.50 449.10 L 707.20 453.20 L 706.20 455.10 L 704.90 456.50 L 703.50 457.40 L 699.90 458.30 L 688.40 457.80 L 685.70 458.00 L 686.60 427.50 Z" fill="#ffffff" fill-rule="nonzero" node-id="113" stroke="none" target-height="30.799988" target-width="24.200012" target-x="685.7" target-y="427.5"></path><path d="M 316.20 448.40 L 321.30 445.70 L 326.50 441.00 L 329.20 437.70 L 334.10 430.80 L 336.50 440.50 L 337.20 445.50 L 337.70 450.60 L 337.30 460.60 L 336.50 465.60 L 335.20 470.40 L 333.40 475.10 L 331.40 477.80 L 328.10 479.60 L 325.80 480.10 L 316.00 480.20 L 314.00 491.10 L 311.20 501.80 L 305.90 498.50 L 295.80 491.20 L 303.20 462.60 L 300.90 461.00 L 297.20 457.20 L 295.80 455.00 L 294.90 452.50 L 294.30 449.80 L 301.70 450.60 L 309.10 450.60 L 313.90 449.40 L 316.20 448.40 Z" fill="#ffffff" fill-rule="nonzero" node-id="115" stroke="none" target-height="71" target-width="43.400024" target-x="294.3" target-y="430.8"></path><path d="M 713.40 451.90 L 715.10 448.90 L 716.40 447.80 L 719.50 446.60 L 722.90 446.60 L 724.50 447.10 L 727.20 448.90 L 728.20 450.30 L 729.00 452.00 L 729.30 455.10 L 727.90 458.30 L 723.30 463.20 L 725.40 468.00 L 728.10 472.40 L 730.00 473.40 L 732.10 474.10 L 740.60 475.80 L 736.50 479.30 L 732.10 482.20 L 713.10 492.10 L 711.10 482.70 L 713.80 480.10 L 715.90 477.20 L 717.60 474.00 L 718.90 470.60 L 719.80 467.10 L 720.30 463.40 L 716.30 460.50 L 714.50 458.80 L 713.30 456.80 L 712.90 455.30 L 712.90 453.70 L 713.40 451.90 Z" fill="#ffffff" fill-rule="nonzero" node-id="117" stroke="none" target-height="45.5" target-width="29.5" target-x="711.1" target-y="446.6"></path><path d="M 874.70 445.60 L 881.70 454.10 L 881.00 458.70 L 880.80 463.20 L 881.10 467.70 L 881.80 472.10 L 884.40 480.70 L 887.20 486.90 L 890.50 492.90 L 884.60 488.60 L 879.00 483.70 L 876.60 481.00 L 874.70 478.00 L 873.70 475.80 L 872.60 471.00 L 872.80 464.60 L 874.70 445.60 Z" fill="#ffffff" fill-rule="nonzero" node-id="119" stroke="none" target-height="47.299988" target-width="17.900024" target-x="872.6" target-y="445.6"></path><path d="M 849.90 459.90 L 855.70 463.50 L 861.20 467.50 L 866.40 471.90 L 867.30 475.50 L 868.70 478.80 L 870.40 481.80 L 873.50 486.00 L 877.20 489.90 L 885.20 497.00 L 885.40 500.90 L 884.00 512.50 L 867.40 501.50 L 862.30 497.30 L 859.20 494.20 L 856.50 490.80 L 854.10 487.00 L 851.70 481.30 L 850.30 473.80 L 849.90 459.90 Z" fill="#ffffff" fill-rule="nonzero" node-id="121" stroke="none" target-height="52.600006" target-width="35.5" target-x="849.9" target-y="459.9"></path><path d="M 712.60 498.40 L 724.50 492.90 L 741.90 483.60 L 747.80 480.90 L 742.00 489.80 L 700.30 543.90 L 712.60 498.40 Z" fill="#ffffff" fill-rule="nonzero" node-id="123" stroke="none" target-height="63.00003" target-width="47.5" target-x="700.3" target-y="480.9"></path><path d="M 700.80 554.10 L 726.10 520.10 L 752.10 486.50 L 756.20 490.90 L 763.50 500.40 L 769.90 510.50 L 772.70 515.90 L 750.10 515.50 L 742.70 516.30 L 739.20 517.20 L 735.90 518.60 L 732.70 520.50 L 729.60 523.00 L 724.00 529.40 L 718.90 536.20 L 714.30 543.40 L 708.40 554.80 L 704.10 566.80 L 702.50 573.00 L 701.40 579.20 L 700.70 585.60 L 700.50 592.00 L 692.20 593.40 L 693.20 578.10 L 694.60 567.90 L 695.90 563.10 L 697.20 560.00 L 700.80 554.10 Z" fill="#ffffff" fill-rule="nonzero" node-id="125" stroke="none" target-height="106.900024" target-width="80.5" target-x="692.2" target-y="486.5"></path><path d="M 290.10 494.90 L 303.80 504.70 L 306.70 506.10 L 310.90 507.10 L 313.10 507.10 L 319.10 497.30 L 319.80 502.60 L 320.00 507.90 L 319.80 513.20 L 319.10 518.40 L 317.90 523.60 L 316.30 528.70 L 304.20 517.70 L 300.40 513.70 L 297.00 509.60 L 294.10 505.10 L 292.40 501.90 L 290.10 494.90 Z" fill="#ffffff" fill-rule="nonzero" node-id="127" stroke="none" target-height="33.80002" target-width="29.899994" target-x="290.1" target-y="494.9"></path><path d="M 260.30 514.60 L 265.70 509.50 L 271.50 504.80 L 277.70 500.60 L 284.20 496.90 L 285.60 501.20 L 287.30 505.20 L 289.40 509.00 L 294.50 515.90 L 302.10 523.80 L 316.80 537.00 L 319.60 533.60 L 321.80 530.00 L 323.40 526.10 L 324.60 522.00 L 325.40 517.80 L 325.80 513.40 L 325.80 506.90 L 325.30 500.60 L 329.60 507.50 L 333.50 514.70 L 337.00 522.10 L 340.10 529.70 L 342.80 537.50 L 345.00 545.30 L 346.80 553.30 L 348.20 561.40 L 348.40 571.10 L 348.30 580.90 L 347.50 600.30 L 345.60 602.80 L 336.60 611.80 L 334.70 614.30 L 287.80 602.90 L 288.30 562.30 L 288.20 552.20 L 287.70 542.10 L 287.20 538.50 L 286.20 535.10 L 284.90 532.00 L 283.10 529.00 L 281.10 526.30 L 276.20 521.50 L 273.30 519.50 L 269.20 517.30 L 264.90 515.70 L 260.30 514.60 Z" fill="#ffffff" fill-rule="nonzero" node-id="129" stroke="none" target-height="117.399994" target-width="88.100006" target-x="260.3" target-y="496.9"></path><path d="M 892.70 496.80 L 893.90 499.00 L 895.40 503.70 L 896.90 514.70 L 899.00 522.70 L 899.80 527.20 L 900.20 531.80 L 900.10 536.30 L 893.10 525.50 L 890.00 519.90 L 889.60 516.00 L 889.70 512.10 L 891.00 504.40 L 892.70 496.80 Z" fill="#ffffff" fill-rule="nonzero" node-id="131" stroke="none" target-height="39.5" target-width="10.600037" target-x="889.6" target-y="496.8"></path><path d="M 680.60 551.30 L 682.60 544.30 L 686.60 536.20 L 689.50 531.70 L 702.30 513.90 L 688.40 569.00 L 687.60 574.10 L 686.00 594.80 L 677.50 595.70 L 679.10 566.10 L 680.60 551.30 Z" fill="#ffffff" fill-rule="nonzero" node-id="133" stroke="none" target-height="81.79999" target-width="24.799988" target-x="677.5" target-y="513.9"></path><path d="M 925.70 551.50 L 929.50 546.20 L 933.50 541.40 L 937.90 536.80 L 942.60 532.50 L 952.80 524.70 L 960.90 519.50 L 969.20 514.90 L 968.20 526.50 L 966.60 534.20 L 965.30 537.80 L 963.70 541.20 L 961.50 544.40 L 958.80 547.30 L 954.00 550.60 L 951.40 551.70 L 947.30 552.80 L 943.00 553.30 L 938.60 553.30 L 934.20 552.90 L 925.70 551.50 Z" fill="#ffffff" fill-rule="nonzero" node-id="135" stroke="none" target-height="38.399963" target-width="43.5" target-x="925.7" target-y="514.9"></path><path d="M 256.00 523.40 L 257.90 521.50 L 259.00 521.10 L 260.90 521.10 L 266.60 522.60 L 269.80 524.10 L 272.60 525.90 L 275.10 528.10 L 277.20 530.70 L 279.00 533.60 L 280.50 536.70 L 281.50 539.90 L 282.10 543.20 L 282.30 546.60 L 282.20 598.70 L 262.40 601.80 L 259.60 586.90 L 250.00 540.20 L 250.20 535.70 L 251.10 532.50 L 252.50 529.30 L 256.00 523.40 Z" fill="#ffffff" fill-rule="nonzero" node-id="137" stroke="none" target-height="80.70001" target-width="32.299988" target-x="250" target-y="521.1"></path><path d="M 731.60 529.10 L 734.50 526.50 L 737.70 524.30 L 742.50 522.40 L 745.10 522.00 L 752.60 521.80 L 775.00 522.10 L 776.50 529.50 L 777.60 537.00 L 778.20 544.50 L 778.30 550.20 L 777.50 561.40 L 776.50 567.00 L 774.60 571.80 L 772.40 576.30 L 769.80 580.60 L 765.40 586.70 L 760.50 592.50 L 755.20 598.00 L 745.40 607.10 L 737.40 613.10 L 730.50 616.80 L 726.90 618.10 L 723.10 619.00 L 719.00 619.30 L 693.40 620.80 L 642.00 622.50 L 642.30 607.40 L 653.00 605.40 L 685.00 600.50 L 706.30 596.60 L 706.20 590.40 L 706.60 584.20 L 707.40 578.20 L 708.70 572.10 L 712.40 560.50 L 717.50 549.30 L 721.70 542.20 L 726.40 535.50 L 731.60 529.10 Z" fill="#ffffff" fill-rule="nonzero" node-id="139" stroke="none" target-height="100.70001" target-width="136.29999" target-x="642" target-y="521.8"></path><path d="M 856.50 528.80 L 861.50 532.30 L 866.10 536.20 L 870.40 540.40 L 874.40 545.00 L 877.90 549.90 L 881.10 555.10 L 874.90 554.70 L 868.80 553.60 L 865.20 551.90 L 863.50 550.60 L 861.70 548.60 L 860.30 546.50 L 859.20 544.20 L 858.00 540.50 L 857.30 536.60 L 856.50 528.80 Z" fill="#ffffff" fill-rule="nonzero" node-id="141" stroke="none" target-height="26.299988" target-width="24.599976" target-x="856.5" target-y="528.8"></path><path d="M 247.90 558.30 L 254.90 593.00 L 259.10 610.30 L 261.00 615.00 L 262.30 617.10 L 265.90 620.70 L 270.30 623.20 L 275.20 624.60 L 287.30 626.20 L 299.50 627.30 L 323.90 628.10 L 348.40 628.00 L 346.10 633.20 L 343.40 638.40 L 340.30 643.30 L 333.20 652.50 L 329.30 656.70 L 325.70 659.90 L 318.00 665.50 L 293.00 679.30 L 285.10 684.60 L 281.50 687.70 L 246.30 687.90 L 244.60 682.40 L 242.40 671.30 L 241.90 665.60 L 241.70 660.00 L 245.40 590.20 L 247.90 558.30 Z" fill="#ffffff" fill-rule="nonzero" node-id="143" stroke="none" target-height="129.60004" target-width="106.7" target-x="241.7" target-y="558.3"></path><path d="M 782.10 568.20 L 825.90 568.20 L 825.90 579.80 L 818.10 581.40 L 815.70 582.40 L 813.10 584.60 L 807.70 594.40 L 803.90 603.00 L 800.60 611.80 L 797.90 620.80 L 795.80 629.90 L 794.20 639.10 L 793.30 647.20 L 792.70 663.40 L 792.70 687.80 L 778.20 688.00 L 782.10 568.20 Z" fill="#ffffff" fill-rule="nonzero" node-id="145" stroke="none" target-height="119.79999" target-width="47.700012" target-x="778.2" target-y="568.2"></path><path d="M 183.80 568.30 L 241.00 568.20 L 236.10 658.60 L 236.10 663.60 L 236.90 673.40 L 238.20 680.70 L 240.00 687.90 L 207.50 687.90 L 207.70 653.50 L 207.30 642.10 L 206.70 634.50 L 205.70 626.90 L 204.40 619.40 L 202.20 610.70 L 199.60 602.20 L 195.30 591.20 L 192.60 585.90 L 191.00 583.40 L 188.90 581.30 L 184.10 577.80 L 183.80 568.30 Z" fill="#ffffff" fill-rule="nonzero" node-id="147" stroke="none" target-height="119.70001" target-width="57.199997" target-x="183.8" target-y="568.2"></path><path d="M 358.60 568.30 L 385.20 568.30 L 362.50 587.60 L 358.60 568.30 Z" fill="#ffffff" fill-rule="nonzero" node-id="149" stroke="none" target-height="19.299988" target-width="26.600006" target-x="358.6" target-y="568.3"></path><path d="M 399.50 593.30 L 419.60 576.20 L 424.80 572.10 L 430.10 568.40 L 562.20 567.80 L 628.80 568.20 L 673.20 567.90 L 672.70 577.10 L 654.00 582.30 L 635.50 588.30 L 626.40 591.70 L 617.50 595.60 L 612.30 595.40 L 609.10 594.30 L 593.10 581.60 L 578.90 569.50 L 546.50 569.60 L 535.80 570.10 L 534.40 571.70 L 533.50 573.50 L 533.30 575.50 L 533.60 577.40 L 534.90 579.70 L 570.90 610.40 L 574.50 614.30 L 580.60 623.20 L 582.40 625.00 L 584.70 626.50 L 588.90 628.40 L 593.10 629.80 L 597.50 630.70 L 606.40 631.30 L 617.80 630.60 L 639.10 628.50 L 668.40 627.70 L 667.40 639.40 L 583.30 639.60 L 575.20 641.00 L 571.30 642.20 L 567.60 643.80 L 564.10 645.80 L 560.80 648.20 L 557.90 651.00 L 555.30 654.30 L 553.30 657.70 L 551.70 661.20 L 550.60 664.80 L 549.40 670.50 L 547.80 687.90 L 448.80 688.00 L 448.40 675.20 L 447.90 668.80 L 446.80 662.60 L 445.70 658.50 L 444.20 654.60 L 442.20 650.70 L 440.20 647.80 L 437.80 645.20 L 435.10 642.90 L 429.10 639.30 L 425.80 637.90 L 418.90 636.20 L 367.30 632.90 L 362.90 624.70 L 368.70 622.90 L 371.30 621.50 L 374.90 618.80 L 378.10 615.70 L 381.00 612.20 L 383.60 608.50 L 385.50 607.80 L 388.60 605.90 L 390.50 604.00 L 395.50 597.30 L 397.40 595.10 L 399.50 593.30 Z" fill="#ffffff" fill-rule="nonzero" node-id="151" stroke="none" target-height="120.20001" target-width="310.30002" target-x="362.9" target-y="567.8"></path><path d="M 156.50 585.00 L 169.50 584.30 L 182.60 584.80 L 184.90 585.80 L 186.40 588.20 L 187.50 593.60 L 200.50 739.70 L 376.10 739.80 L 378.10 768.80 L 154.70 768.70 L 154.60 593.90 L 154.80 589.20 L 155.40 587.00 L 156.50 585.00 Z" fill="#ffffff" fill-rule="nonzero" node-id="153" stroke="none" target-height="184.5" target-width="223.5" target-x="154.6" target-y="584.3"></path><path d="M 624.30 598.80 L 640.10 592.70 L 648.10 590.10 L 672.40 583.00 L 671.90 596.70 L 666.00 597.40 L 648.00 600.60 L 642.00 601.30 L 636.10 601.40 L 632.20 601.00 L 628.30 600.10 L 624.30 598.80 Z" fill="#ffffff" fill-rule="nonzero" node-id="155" stroke="none" target-height="18.400024" target-width="48.100037" target-x="624.3" target-y="583"></path><path d="M 739.60 618.60 L 746.60 613.50 L 753.20 608.00 L 759.50 602.00 L 765.30 595.60 L 770.80 588.90 L 775.80 581.90 L 772.20 687.90 L 710.30 688.00 L 711.50 656.80 L 713.00 625.70 L 722.30 624.70 L 726.90 623.90 L 734.20 621.60 L 739.60 618.60 Z M 723.40 643.90 L 722.40 643.90 L 721.70 644.50 L 721.30 645.50 L 721.40 647.90 L 721.90 648.90 L 722.60 649.40 L 746.00 649.70 L 769.40 649.50 L 770.70 648.90 L 771.20 647.90 L 771.40 646.70 L 770.50 644.50 L 769.70 644.00 L 753.40 643.60 L 723.40 643.90 Z" fill="#ffffff" fill-rule="nonzero" node-id="157" stroke="none" target-height="106.099976" target-width="65.5" target-x="710.3" target-y="581.9"></path><path d="M 813.20 601.60 L 814.20 595.10 L 815.40 590.80 L 816.50 589.00 L 818.70 587.30 L 820.20 586.70 L 832.10 585.90 L 844.10 586.40 L 845.00 589.40 L 845.60 595.40 L 845.50 768.70 L 600.50 768.70 L 602.10 739.70 L 799.70 739.70 L 806.70 670.70 L 813.20 601.60 Z" fill="#ffffff" fill-rule="nonzero" node-id="159" stroke="none" target-height="182.79999" target-width="245.09998" target-x="600.5" target-y="585.9"></path><path d="M 614.70 601.30 L 625.50 605.00 L 636.70 607.60 L 636.60 622.80 L 614.10 625.40 L 606.70 625.70 L 601.70 625.50 L 596.80 624.80 L 590.10 623.00 L 587.00 620.90 L 583.30 616.60 L 603.40 615.50 L 609.90 614.30 L 613.00 613.20 L 614.50 612.20 L 615.50 611.10 L 616.10 609.90 L 616.40 607.80 L 616.20 605.60 L 614.70 601.30 Z" fill="#ffffff" fill-rule="nonzero" node-id="161" stroke="none" target-height="24.400024" target-width="53.400024" target-x="583.3" target-y="601.3"></path><path d="M 263.70 607.80 L 274.70 607.10 L 282.10 607.60 L 333.40 620.00 L 331.40 621.10 L 327.20 622.20 L 320.50 622.30 L 287.20 620.30 L 274.10 618.30 L 272.30 617.80 L 269.40 616.10 L 266.20 612.20 L 263.70 607.80 Z" fill="#ffffff" fill-rule="nonzero" node-id="163" stroke="none" target-height="15.200012" target-width="69.69998" target-x="263.7" target-y="607.1"></path><path d="M 336.40 619.00 L 342.20 615.10 L 348.40 611.80 L 354.80 609.00 L 361.30 606.60 L 358.90 612.80 L 376.10 609.90 L 373.40 612.80 L 370.50 615.20 L 367.40 617.00 L 360.50 619.60 L 351.20 621.20 L 334.30 622.70 L 336.40 619.00 Z" fill="#ffffff" fill-rule="nonzero" node-id="165" stroke="none" target-height="16.100037" target-width="41.80002" target-x="334.3" target-y="606.6"></path><path d="M 875.30 655.50 L 931.00 655.40 L 931.00 676.70 L 930.90 697.90 L 875.30 697.80 L 875.30 655.50 Z" fill="#ffffff" fill-rule="nonzero" node-id="167" stroke="none" target-height="42.5" target-width="55.700012" target-x="875.3" target-y="655.4"></path><path d="M 206.80 694.70 L 373.10 694.50 L 375.80 733.20 L 206.90 733.20 L 206.80 694.70 Z" fill="#ffffff" fill-rule="nonzero" node-id="169" stroke="none" target-height="38.700012" target-width="168.99998" target-x="206.8" target-y="694.5"></path><path d="M 447.60 733.30 L 448.70 694.60 L 547.90 694.60 L 547.80 733.30 L 447.60 733.30 Z" fill="#ffffff" fill-rule="nonzero" node-id="171" stroke="none" target-height="38.700012" target-width="100.30002" target-x="447.6" target-y="694.6"></path><path d="M 602.10 733.20 L 604.00 694.60 L 793.40 694.60 L 793.40 733.30 L 602.10 733.20 Z" fill="#ffffff" fill-rule="nonzero" node-id="173" stroke="none" target-height="38.700012" target-width="191.30005" target-x="602.1" target-y="694.6"></path><path d="M 875.30 703.60 L 931.10 704.00 L 931.00 802.10 L 875.20 802.00 L 875.30 703.60 Z" fill="#ffffff" fill-rule="nonzero" node-id="175" stroke="none" target-height="98.5" target-width="55.899963" target-x="875.2" target-y="703.6"></path><path d="M 447.50 739.80 L 547.60 739.80 L 547.40 768.70 L 446.40 768.70 L 447.50 739.80 Z" fill="#ffffff" fill-rule="nonzero" node-id="177" stroke="none" target-height="28.900024" target-width="101.19998" target-x="446.4" target-y="739.8"></path><path d="M 184.20 775.30 L 208.50 775.30 L 208.50 810.50 L 208.10 845.70 L 184.20 845.60 L 184.20 775.30 Z" fill="#ffffff" fill-rule="nonzero" node-id="179" stroke="none" target-height="70.400024" target-width="24.300003" target-x="184.2" target-y="775.3"></path><path d="M 233.90 775.10 L 378.20 775.20 L 381.50 815.10 L 390.50 815.30 L 389.50 830.50 L 389.60 838.00 L 390.10 845.60 L 217.10 845.50 L 233.90 775.10 Z" fill="#ffffff" fill-rule="nonzero" node-id="181" stroke="none" target-height="70.5" target-width="173.4" target-x="217.1" target-y="775.1"></path><path d="M 446.20 775.20 L 501.20 775.30 L 508.50 845.60 L 461.20 845.60 L 448.50 833.40 L 446.60 831.30 L 443.60 826.50 L 442.70 823.90 L 442.10 821.10 L 442.10 817.80 L 443.90 813.80 L 444.50 811.70 L 446.20 775.20 Z" fill="#ffffff" fill-rule="nonzero" node-id="183" stroke="none" target-height="70.39996" target-width="66.399994" target-x="442.1" target-y="775.2"></path><path d="M 523.50 775.30 L 547.40 775.20 L 547.10 814.70 L 554.90 815.30 L 553.50 818.30 L 551.90 820.90 L 550.00 823.10 L 546.70 826.00 L 543.00 828.50 L 539.10 830.50 L 526.40 836.00 L 518.50 840.30 L 523.50 775.30 Z" fill="#ffffff" fill-rule="nonzero" node-id="185" stroke="none" target-height="65.099976" target-width="36.400024" target-x="518.5" target-y="775.2"></path><path d="M 600.20 775.20 L 790.30 775.20 L 795.40 845.60 L 596.70 845.70 L 600.20 775.20 Z" fill="#ffffff" fill-rule="nonzero" node-id="187" stroke="none" target-height="70.5" target-width="198.70001" target-x="596.7" target-y="775.2"></path><path d="M 796.40 775.10 L 807.60 775.10 L 807.70 845.60 L 801.30 845.70 L 796.40 775.10 Z" fill="#ffffff" fill-rule="nonzero" node-id="189" stroke="none" target-height="70.60004" target-width="11.299988" target-x="796.4" target-y="775.1"></path><path d="M 875.20 808.10 L 931.00 808.20 L 931.00 845.70 L 875.30 845.60 L 875.20 808.10 Z" fill="#ffffff" fill-rule="nonzero" node-id="191" stroke="none" target-height="37.600037" target-width="55.799988" target-x="875.2" target-y="808.1"></path><path d="M 806.30 612.20 L 802.40 658.60 L 801.00 670.10 L 798.90 681.50 L 798.40 672.80 L 798.30 664.00 L 798.50 655.20 L 799.20 646.50 L 800.30 637.80 L 801.90 629.20 L 803.90 620.70 L 806.30 612.20 Z" fill="#fefefe" fill-rule="nonzero" node-id="193" stroke="none" target-height="69.29999" target-width="8" target-x="798.3" target-y="612.2"></path><path d="M 396.20 815.30 L 411.30 815.30 L 412.40 819.70 L 415.50 828.10 L 417.60 832.00 L 420.00 835.70 L 422.90 839.20 L 419.50 839.30 L 416.20 839.00 L 409.90 837.20 L 404.00 834.30 L 399.90 831.50 L 396.00 828.40 L 396.20 815.30 Z" fill="#fefefe" fill-rule="nonzero" node-id="195" stroke="none" target-height="24" target-width="26.899994" target-x="396" target-y="815.3"></path><path d="M 899.90 549.50 L 902.40 554.90 L 904.40 560.40 L 905.90 566.10 L 910.20 589.60 L 911.50 595.40 L 912.00 613.40 L 911.90 649.50 L 899.20 649.50 L 899.30 574.50 L 899.90 549.50 Z" fill="#fefeff" fill-rule="nonzero" node-id="197" stroke="none" target-height="100" target-width="12.799988" target-x="899.2" target-y="549.5"></path><path d="M 912.10 569.50 L 911.50 565.40 L 911.60 561.40 L 912.00 558.80 L 913.90 553.70 L 913.70 559.00 L 913.10 564.30 L 912.10 569.50 Z" fill="#fefeff" fill-rule="nonzero" node-id="199" stroke="none" target-height="15.799988" target-width="2.4000244" target-x="911.5" target-y="553.7"></path><path d="M 354.50 578.30 L 357.80 592.10 L 353.90 595.40 L 354.50 578.30 Z" fill="#fefeff" fill-rule="nonzero" node-id="201" stroke="none" target-height="17.100037" target-width="3.899994" target-x="353.9" target-y="578.3"></path><path d="M 354.70 626.70 L 355.90 626.20 L 357.00 626.30 L 358.80 627.70 L 359.60 630.00 L 359.50 631.10 L 358.80 632.20 L 357.60 632.70 L 356.50 632.60 L 354.60 631.20 L 353.80 628.90 L 354.00 627.70 L 354.70 626.70 Z" fill="#fefeff" fill-rule="nonzero" node-id="203" stroke="none" target-height="6.5" target-width="5.8000183" target-x="353.8" target-y="626.2"></path><path d="M 914.60 510.60 L 913.80 508.00 L 913.00 502.60 L 913.60 497.30 L 914.50 494.70 L 915.70 492.40 L 917.30 490.30 L 919.50 488.30 L 921.90 497.40 L 923.40 506.80 L 925.20 518.10 L 924.80 521.70 L 923.90 524.10 L 922.50 526.50 L 915.80 535.50 L 916.50 527.10 L 916.50 518.70 L 915.80 514.60 L 914.60 510.60 Z" fill="#fffeff" fill-rule="nonzero" node-id="205" stroke="none" target-height="47.200012" target-width="12.200012" target-x="913" target-y="488.3"></path><path d="M 212.20 302.30 L 388.50 302.30 L 388.60 320.70 L 212.20 320.70 L 212.20 302.30 Z" fill="#feffff" fill-rule="nonzero" node-id="207" stroke="none" target-height="18.400024" target-width="176.40001" target-x="212.2" target-y="302.3"></path><path d="M 653.20 302.40 L 872.30 302.30 L 872.30 320.70 L 653.20 320.70 L 653.20 302.40 Z" fill="#feffff" fill-rule="nonzero" node-id="209" stroke="none" target-height="18.400024" target-width="219.09998" target-x="653.2" target-y="302.3"></path><path d="M 160.60 341.30 L 162.90 339.10 L 165.60 337.40 L 168.50 336.10 L 177.70 332.80 L 204.80 375.70 L 199.80 376.40 L 194.80 377.70 L 190.00 379.30 L 185.40 381.40 L 181.00 383.80 L 176.70 386.70 L 172.70 389.80 L 169.00 393.30 L 165.60 397.10 L 160.60 341.30 Z" fill="#feffff" fill-rule="nonzero" node-id="211" stroke="none" target-height="64.30002" target-width="44.199997" target-x="160.6" target-y="332.8"></path><path d="M 891.80 426.00 L 894.80 429.30 L 897.30 432.90 L 899.50 436.60 L 901.20 440.50 L 902.70 444.60 L 904.40 453.00 L 904.80 457.40 L 904.70 463.20 L 904.10 468.90 L 902.90 474.70 L 901.10 480.30 L 898.90 485.50 L 896.10 490.60 L 890.90 481.10 L 888.70 476.10 L 887.20 471.00 L 886.60 467.50 L 886.50 464.00 L 886.80 460.30 L 891.00 434.60 L 891.80 426.00 Z" fill="#feffff" fill-rule="nonzero" node-id="213" stroke="none" target-height="64.600006" target-width="18.299988" target-x="886.5" target-y="426"></path><path d="M 944.70 455.70 L 946.60 452.70 L 951.20 447.60 L 955.20 444.30 L 959.50 441.30 L 968.40 436.00 L 968.60 452.20 L 967.90 463.00 L 966.80 468.20 L 964.40 474.90 L 960.20 481.60 L 957.50 484.80 L 954.30 487.70 L 950.90 490.10 L 947.20 492.20 L 943.30 493.90 L 939.30 495.10 L 935.10 495.90 L 930.90 496.30 L 935.20 487.10 L 937.00 482.50 L 938.30 477.60 L 940.50 466.30 L 941.60 462.60 L 942.90 459.10 L 944.70 455.70 Z" fill="#feffff" fill-rule="nonzero" node-id="215" stroke="none" target-height="60.299988" target-width="37.69995" target-x="930.9" target-y="436"></path><path d="M 684.00 626.90 L 707.10 625.90 L 706.50 642.40 L 682.20 642.50 L 684.00 626.90 Z" fill="#feffff" fill-rule="nonzero" node-id="217" stroke="none" target-height="16.599976" target-width="24.899963" target-x="682.2" target-y="625.9"></path><path d="M 326.40 666.70 L 331.30 662.70 L 335.70 658.30 L 339.70 653.60 L 343.40 648.60 L 350.10 638.00 L 374.00 638.90 L 402.20 641.40 L 406.50 642.60 L 411.90 645.10 L 416.60 648.60 L 420.50 653.20 L 422.00 655.90 L 424.10 661.60 L 424.90 666.10 L 425.30 670.80 L 425.70 680.00 L 425.60 809.00 L 386.30 809.00 L 378.60 688.00 L 290.10 687.70 L 296.10 684.10 L 314.60 674.10 L 320.60 670.60 L 326.40 666.70 Z" fill="#5b79c0" fill-rule="nonzero" node-id="219" stroke="none" target-height="171" target-width="135.6" target-x="290.1" target-y="638"></path><path d="M 902.20 507.80 L 903.20 505.10 L 907.50 497.50 L 910.00 516.40 L 910.50 525.90 L 910.50 535.40 L 910.00 541.70 L 908.00 554.20 L 903.40 544.40 L 905.50 534.70 L 905.90 528.20 L 904.90 522.00 L 902.60 513.60 L 902.10 510.70 L 902.20 507.80 Z" fill="#fdfdfe" fill-rule="nonzero" node-id="221" stroke="none" target-height="56.700012" target-width="8.400024" target-x="902.1" target-y="497.5"></path><path d="M 428.40 171.00 L 605.70 171.10 L 605.70 376.70 L 428.40 376.70 L 428.40 171.00 Z M 436.20 178.70 L 436.20 368.70 L 597.90 368.80 L 597.90 178.80 L 436.20 178.70 Z" fill="#1c214b" fill-rule="nonzero" node-id="223" stroke="none" target-height="205.70001" target-width="177.30002" target-x="428.4" target-y="171"></path><path d="M 319.70 217.30 L 354.40 217.30 L 354.50 295.90 L 394.40 296.10 L 394.50 326.90 L 205.90 326.90 L 206.00 296.10 L 289.80 295.90 L 299.80 244.80 L 303.70 227.90 L 319.40 232.40 L 319.70 217.30 Z M 325.70 223.70 L 326.30 296.10 L 348.40 295.90 L 348.50 223.70 L 325.70 223.70 Z M 307.70 235.30 L 295.70 296.00 L 305.30 296.00 L 316.60 237.70 L 307.70 235.30 Z M 319.30 252.10 L 315.50 274.10 L 311.00 295.90 L 320.10 296.10 L 320.00 263.10 L 319.30 252.10 Z M 212.20 302.30 L 212.20 320.70 L 388.60 320.70 L 388.50 302.30 L 212.20 302.30 Z" fill="#1d224e" fill-rule="nonzero" node-id="225" stroke="none" target-height="109.59999" target-width="188.6" target-x="205.9" target-y="217.3"></path><path d="M 647.30 217.30 L 726.80 217.50 L 726.90 295.90 L 737.10 296.10 L 737.20 217.30 L 814.70 217.40 L 814.70 295.90 L 878.50 296.10 L 878.50 326.70 L 820.70 327.00 L 647.20 326.90 L 647.30 217.30 Z M 653.30 223.70 L 653.20 296.00 L 669.80 296.00 L 669.80 223.60 L 653.30 223.70 Z M 675.60 223.60 L 675.60 277.90 L 676.10 296.00 L 694.10 296.00 L 694.00 223.60 L 675.60 223.60 Z M 700.10 223.60 L 700.00 295.90 L 720.80 295.90 L 720.90 223.60 L 700.10 223.60 Z M 743.30 223.60 L 743.30 296.00 L 762.30 296.00 L 762.30 223.70 L 743.30 223.60 Z M 768.60 223.60 L 768.30 247.70 L 768.50 295.90 L 786.30 295.90 L 786.30 223.60 L 768.60 223.60 Z M 792.30 223.60 L 792.40 295.90 L 808.60 296.00 L 808.60 223.60 L 792.30 223.60 Z M 653.20 302.40 L 653.20 320.70 L 872.30 320.70 L 872.30 302.30 L 653.20 302.40 Z" fill="#1c224d" fill-rule="nonzero" node-id="227" stroke="none" target-height="109.7" target-width="231.29999" target-x="647.2" target-y="217.3"></path><path d="M 499.90 219.20 L 527.70 219.30 L 528.00 254.60 L 556.70 254.70 L 556.60 284.90 L 527.80 284.80 L 527.70 315.80 L 499.90 315.70 L 499.90 284.90 L 471.50 284.80 L 471.50 254.70 L 500.00 254.70 L 499.90 219.20 Z" fill="#e4363f" fill-rule="nonzero" node-id="229" stroke="none" target-height="96.59999" target-width="85.20001" target-x="471.5" target-y="219.2"></path><path d="M 154.08 339.90 L 155.49 337.40 L 157.29 335.30 L 159.50 333.60 L 163.11 331.40 L 167.13 329.80 L 175.25 327.50 L 176.96 327.40 L 178.46 327.70 L 179.66 328.40 L 181.37 329.90 L 185.58 335.70 L 207.75 370.90 L 214.77 382.80 L 213.67 386.30 L 212.07 389.50 L 210.16 392.40 L 205.44 397.50 L 202.64 399.70 L 198.12 402.60 L 193.31 405.10 L 183.48 409.20 L 177.76 410.60 L 171.74 411.40 L 168.73 411.30 L 165.92 410.70 L 162.61 408.90 L 161.21 407.40 L 159.60 401.20 L 158.50 394.90 L 156.19 369.20 L 150.37 372.00 L 145.06 375.70 L 142.25 378.80 L 140.54 382.40 L 140.14 384.60 L 139.94 552.10 L 139.74 553.80 L 139.24 555.20 L 137.53 556.20 L 136.03 556.40 L 135.13 555.60 L 134.12 553.60 L 133.82 523.70 L 123.79 523.80 L 123.69 845.50 L 177.36 845.60 L 177.26 775.30 L 147.26 775.10 L 147.46 591.70 L 147.46 589.00 L 148.07 586.30 L 149.17 583.80 L 150.87 581.60 L 153.78 579.50 L 155.49 578.80 L 160.81 578.40 L 176.86 578.50 L 176.86 561.90 L 241.16 561.80 L 241.46 553.30 L 242.36 544.80 L 243.26 539.10 L 246.17 528.20 L 248.28 522.90 L 250.99 518.00 L 254.20 513.20 L 258.31 508.20 L 262.82 503.80 L 272.85 495.70 L 262.02 495.40 L 258.41 494.90 L 255.00 494.10 L 251.79 492.70 L 247.98 490.00 L 246.37 488.10 L 245.17 484.50 L 245.17 482.90 L 245.77 480.40 L 246.87 478.00 L 252.89 468.90 L 254.30 466.00 L 255.30 463.00 L 255.90 460.00 L 256.20 455.40 L 255.40 436.50 L 255.70 431.90 L 256.20 428.90 L 257.21 426.00 L 260.62 419.60 L 262.92 416.40 L 265.53 413.60 L 268.34 411.10 L 272.45 408.20 L 276.97 405.80 L 281.78 403.90 L 286.70 402.60 L 291.81 401.80 L 297.03 401.50 L 302.25 401.80 L 307.36 402.60 L 312.38 403.90 L 317.19 405.80 L 321.71 408.20 L 325.92 411.10 L 329.33 414.00 L 332.24 417.10 L 334.75 420.50 L 336.85 424.20 L 338.66 428.10 L 340.06 432.20 L 341.97 440.70 L 342.47 445.10 L 342.77 451.70 L 342.67 458.00 L 341.57 467.00 L 340.57 471.50 L 338.96 475.80 L 337.66 478.40 L 335.85 480.80 L 333.64 483.00 L 331.44 484.40 L 329.13 485.30 L 319.10 486.90 L 327.22 495.70 L 331.04 500.50 L 334.45 505.40 L 337.46 510.60 L 340.16 516.10 L 343.37 523.50 L 345.98 531.10 L 352.80 554.40 L 355.51 562.00 L 391.62 562.10 L 401.46 553.40 L 406.87 549.60 L 422.92 549.20 L 433.66 549.60 L 438.87 550.30 L 440.48 551.60 L 441.18 552.90 L 441.38 555.50 L 440.08 558.30 L 436.97 562.00 L 674.21 561.80 L 675.31 552.40 L 676.21 547.70 L 677.42 543.10 L 679.12 538.70 L 681.43 534.50 L 687.45 525.60 L 707.61 498.10 L 708.31 495.20 L 708.21 492.80 L 707.01 485.70 L 698.58 487.50 L 695.77 487.60 L 692.96 487.30 L 690.46 486.40 L 688.95 485.50 L 686.44 482.40 L 683.23 473.90 L 682.23 469.50 L 681.23 462.90 L 680.73 449.20 L 681.23 428.80 L 674.41 428.10 L 672.10 427.50 L 668.19 425.40 L 666.68 423.90 L 665.58 421.90 L 664.98 419.50 L 664.98 416.70 L 665.38 415.70 L 666.58 414.30 L 668.19 413.20 L 672.00 412.00 L 671.00 406.10 L 671.20 404.30 L 671.60 403.30 L 672.40 402.30 L 673.80 401.50 L 681.83 407.00 L 686.24 409.10 L 690.86 410.60 L 690.96 404.60 L 692.06 401.00 L 694.17 398.10 L 695.77 397.00 L 697.88 396.10 L 701.69 402.80 L 703.20 404.80 L 705.90 406.80 L 707.51 407.40 L 712.32 408.10 L 732.09 408.50 L 740.01 409.60 L 746.23 411.80 L 748.84 413.40 L 751.15 415.30 L 753.05 417.50 L 754.56 420.10 L 755.76 422.80 L 756.56 425.70 L 756.96 428.60 L 756.56 434.60 L 753.45 447.70 L 745.43 473.70 L 750.74 477.50 L 755.66 481.60 L 760.27 486.00 L 764.69 490.90 L 768.60 496.00 L 772.21 501.40 L 775.42 507.00 L 778.13 512.80 L 780.54 518.90 L 782.34 525.00 L 783.65 531.30 L 784.85 543.70 L 784.45 561.80 L 832.80 561.90 L 833.10 580.00 L 841.73 580.00 L 846.34 580.80 L 847.95 581.70 L 850.76 584.50 L 852.16 588.00 L 852.66 593.80 L 852.46 775.30 L 814.94 775.20 L 814.94 845.60 L 870.32 845.60 L 870.22 649.50 L 894.29 649.50 L 894.19 583.00 L 893.19 579.10 L 891.88 575.40 L 885.56 560.70 L 877.24 560.70 L 873.02 560.30 L 869.01 559.40 L 864.00 557.30 L 861.69 555.70 L 859.18 553.20 L 857.08 550.50 L 855.47 547.40 L 853.36 540.90 L 852.06 532.10 L 851.76 524.90 L 852.16 522.50 L 852.66 521.50 L 853.26 520.90 L 854.17 520.70 L 855.37 521.10 L 861.29 524.40 L 866.71 528.20 L 871.82 532.50 L 876.44 537.30 L 880.75 542.40 L 884.66 547.80 L 888.17 553.60 L 891.28 559.50 L 893.89 565.60 L 893.89 536.70 L 890.88 532.70 L 888.37 528.50 L 886.37 524.00 L 884.86 519.30 L 866.91 507.30 L 862.49 504.10 L 855.97 498.10 L 851.56 492.40 L 849.65 488.90 L 848.05 485.40 L 846.14 477.90 L 845.34 470.10 L 845.44 464.20 L 846.14 456.70 L 847.75 454.00 L 849.05 452.80 L 854.17 455.20 L 859.08 458.20 L 868.31 464.70 L 870.72 436.60 L 873.63 436.40 L 876.74 438.00 L 884.86 446.80 L 885.56 442.20 L 886.97 423.50 L 887.57 418.90 L 888.67 418.10 L 889.68 417.70 L 890.68 417.80 L 892.18 418.40 L 893.69 419.50 L 899.91 425.60 L 902.92 429.50 L 905.53 433.70 L 907.73 438.20 L 909.44 442.80 L 910.74 447.60 L 911.54 452.50 L 911.75 457.50 L 911.44 466.80 L 910.04 475.20 L 908.23 481.30 L 906.03 487.20 L 900.71 498.90 L 915.76 485.00 L 921.07 480.50 L 925.19 485.60 L 928.30 491.40 L 930.50 487.00 L 932.21 482.50 L 936.92 463.60 L 938.33 459.00 L 940.13 454.60 L 943.54 449.20 L 945.65 446.60 L 949.96 442.50 L 957.89 436.30 L 964.81 432.30 L 968.52 430.80 L 972.33 429.70 L 976.25 429.00 L 975.95 435.50 L 975.74 455.50 L 975.14 462.10 L 974.04 468.50 L 972.84 472.70 L 971.23 476.70 L 969.02 480.70 L 966.92 484.10 L 961.70 490.00 L 958.79 492.50 L 954.48 495.50 L 949.86 497.90 L 944.95 499.80 L 939.83 501.10 L 934.62 501.80 L 929.30 501.90 L 931.71 515.90 L 931.71 523.00 L 930.91 525.30 L 928.60 529.50 L 921.58 538.00 L 919.67 541.00 L 919.37 551.40 L 924.69 544.50 L 930.40 537.90 L 936.52 531.80 L 943.14 526.00 L 950.06 520.70 L 957.19 515.80 L 964.71 511.40 L 972.53 507.50 L 975.95 508.00 L 976.05 519.90 L 975.54 526.00 L 974.54 532.00 L 972.13 539.60 L 970.53 543.10 L 968.42 546.50 L 965.91 549.50 L 962.90 552.40 L 960.00 554.50 L 956.99 556.20 L 953.78 557.40 L 947.06 558.90 L 943.54 559.20 L 938.33 559.10 L 933.01 558.60 L 922.68 556.50 L 920.27 568.60 L 919.57 574.70 L 919.37 649.50 L 938.43 649.50 L 938.53 845.60 L 978.85 845.60 L 992.30 846.00 L 993.50 848.60 L 993.40 849.60 L 992.40 851.30 L 991.39 851.90 L 989.69 852.30 L 582.32 852.30 L 447.30 852.60 L 46.15 852.30 L 31.80 852.00 L 30.50 849.60 L 30.50 848.70 L 31.10 847.60 L 32.21 846.60 L 35.42 845.60 L 117.07 845.60 L 117.27 431.50 L 118.07 430.20 L 119.18 429.70 L 120.58 429.40 L 121.98 429.60 L 123.09 430.10 L 123.69 431.40 L 123.79 517.60 L 134.02 517.70 L 134.32 384.90 L 134.52 381.90 L 135.23 379.30 L 136.33 376.90 L 139.44 372.80 L 144.76 368.50 L 155.59 362.60 L 154.08 347.50 L 154.08 339.90 Z M 159.50 341.30 L 164.52 397.10 L 167.93 393.30 L 171.64 389.80 L 175.65 386.70 L 179.97 383.80 L 184.38 381.40 L 188.99 379.30 L 193.81 377.70 L 198.82 376.40 L 203.84 375.70 L 176.66 332.80 L 167.43 336.10 L 164.52 337.40 L 161.81 339.10 L 159.50 341.30 Z M 171.04 398.10 L 168.13 401.50 L 167.53 402.70 L 167.23 404.00 L 167.63 405.60 L 172.14 405.60 L 176.55 405.00 L 180.87 404.00 L 189.19 400.70 L 196.62 396.70 L 199.93 394.40 L 202.94 391.80 L 205.55 388.90 L 206.95 386.70 L 208.96 381.70 L 204.14 381.80 L 199.53 382.40 L 194.91 383.50 L 190.50 385.00 L 186.18 387.00 L 178.16 392.00 L 171.04 398.10 Z M 687.15 427.50 L 686.24 458.00 L 688.95 457.80 L 698.48 458.40 L 700.49 458.30 L 704.10 457.40 L 705.50 456.50 L 706.81 455.10 L 707.81 453.20 L 709.11 449.10 L 709.92 444.80 L 710.32 440.50 L 710.52 427.50 L 687.15 427.50 Z M 892.99 426.00 L 892.18 434.60 L 887.97 460.30 L 887.67 464.00 L 887.77 467.50 L 888.37 471.00 L 889.88 476.10 L 892.08 481.10 L 897.30 490.60 L 900.11 485.50 L 902.32 480.30 L 904.12 474.70 L 905.33 468.90 L 905.93 463.20 L 906.03 457.40 L 904.92 448.70 L 902.42 440.50 L 900.71 436.60 L 898.50 432.90 L 896.00 429.30 L 892.99 426.00 Z M 315.59 448.40 L 313.28 449.40 L 308.47 450.60 L 301.04 450.60 L 293.62 449.80 L 294.22 452.50 L 295.12 455.00 L 296.53 457.20 L 300.24 461.00 L 302.55 462.60 L 295.12 491.20 L 305.26 498.50 L 310.57 501.80 L 313.38 491.10 L 315.39 480.20 L 325.22 480.10 L 327.53 479.60 L 330.84 477.80 L 332.84 475.10 L 334.65 470.40 L 335.95 465.60 L 336.75 460.60 L 337.16 450.60 L 336.65 445.50 L 335.95 440.50 L 333.54 430.80 L 328.63 437.70 L 325.92 441.00 L 320.70 445.70 L 315.59 448.40 Z M 946.05 455.70 L 944.25 459.10 L 942.94 462.60 L 941.84 466.30 L 939.63 477.60 L 938.33 482.50 L 936.52 487.10 L 932.21 496.30 L 936.42 495.90 L 940.64 495.10 L 944.65 493.90 L 948.56 492.20 L 952.27 490.10 L 955.68 487.70 L 958.89 484.80 L 961.60 481.60 L 964.01 478.10 L 967.22 471.60 L 968.22 468.20 L 969.32 463.00 L 970.03 452.20 L 969.83 436.00 L 960.90 441.30 L 956.59 444.30 L 952.57 447.60 L 947.96 452.70 L 946.05 455.70 Z M 714.03 451.90 L 713.53 453.70 L 713.53 455.30 L 713.93 456.80 L 715.13 458.80 L 716.94 460.50 L 720.95 463.40 L 720.45 467.10 L 719.55 470.60 L 718.24 474.00 L 716.54 477.20 L 714.43 480.10 L 711.72 482.70 L 713.73 492.10 L 732.79 482.20 L 737.20 479.30 L 741.31 475.80 L 732.79 474.10 L 730.68 473.40 L 728.78 472.40 L 726.07 468.00 L 723.96 463.20 L 728.57 458.30 L 729.98 455.10 L 729.68 452.00 L 728.88 450.30 L 727.87 448.90 L 725.16 447.10 L 723.56 446.60 L 720.15 446.60 L 717.04 447.80 L 715.73 448.90 L 714.73 450.20 L 714.03 451.90 Z M 875.83 445.60 L 873.93 464.60 L 873.73 471.00 L 874.83 475.80 L 875.83 478.00 L 877.74 481.00 L 882.86 486.20 L 891.68 492.90 L 888.37 486.90 L 885.56 480.70 L 882.96 472.10 L 882.25 467.70 L 881.95 463.20 L 882.15 458.70 L 882.76 454.10 L 875.83 445.60 Z M 850.96 459.90 L 851.06 469.10 L 851.96 478.40 L 853.76 484.20 L 857.58 490.80 L 860.29 494.20 L 863.39 497.30 L 868.51 501.50 L 885.16 512.50 L 886.57 500.90 L 886.37 497.00 L 878.34 489.90 L 874.63 486.00 L 871.52 481.80 L 869.81 478.80 L 868.41 475.50 L 867.51 471.90 L 862.29 467.50 L 856.77 463.50 L 850.96 459.90 Z M 713.23 498.40 L 700.89 543.90 L 742.72 489.80 L 748.54 480.90 L 742.62 483.60 L 725.16 492.90 L 713.23 498.40 Z M 701.39 554.10 L 697.78 560.00 L 696.47 563.10 L 695.17 567.90 L 693.77 578.10 L 692.76 593.40 L 701.09 592.00 L 701.29 585.60 L 701.99 579.20 L 703.10 573.00 L 704.70 566.80 L 706.71 560.70 L 709.01 554.80 L 714.93 543.40 L 719.55 536.20 L 724.66 529.40 L 730.28 523.00 L 733.39 520.50 L 736.60 518.60 L 739.91 517.20 L 743.42 516.30 L 750.84 515.50 L 773.51 515.90 L 770.71 510.50 L 764.29 500.40 L 756.96 490.90 L 752.85 486.50 L 726.77 520.10 L 701.39 554.10 Z M 915.86 510.60 L 917.06 514.60 L 917.66 518.70 L 917.76 527.10 L 917.06 535.50 L 923.78 526.50 L 925.19 524.10 L 926.09 521.70 L 926.49 518.10 L 923.18 497.40 L 922.18 492.90 L 920.77 488.30 L 918.57 490.30 L 916.96 492.40 L 915.76 494.70 L 914.45 499.90 L 914.25 502.60 L 915.06 508.00 L 915.86 510.60 Z M 289.41 494.90 L 291.71 501.90 L 293.42 505.10 L 296.33 509.60 L 299.74 513.70 L 303.55 517.70 L 315.69 528.70 L 317.29 523.60 L 318.50 518.40 L 319.20 513.20 L 319.40 507.90 L 319.20 502.60 L 318.50 497.30 L 312.48 507.10 L 310.27 507.10 L 306.06 506.10 L 303.15 504.70 L 289.41 494.90 Z M 259.51 514.60 L 264.13 515.70 L 268.44 517.30 L 272.55 519.50 L 275.46 521.50 L 280.38 526.30 L 282.38 529.00 L 284.19 532.00 L 285.49 535.10 L 286.50 538.50 L 287.00 542.10 L 287.50 552.20 L 287.60 562.30 L 287.10 602.90 L 334.15 614.30 L 336.05 611.80 L 345.08 602.80 L 346.99 600.30 L 347.79 580.90 L 347.89 571.10 L 347.69 561.40 L 346.28 553.30 L 344.48 545.30 L 342.27 537.50 L 339.56 529.70 L 336.45 522.10 L 332.94 514.70 L 329.03 507.50 L 324.72 500.60 L 325.22 506.90 L 325.22 513.40 L 324.82 517.80 L 324.01 522.00 L 322.81 526.10 L 321.21 530.00 L 319.00 533.60 L 316.19 537.00 L 301.44 523.80 L 293.82 515.90 L 288.70 509.00 L 286.60 505.20 L 284.89 501.20 L 283.49 496.90 L 276.97 500.60 L 270.75 504.80 L 264.93 509.50 L 259.51 514.60 Z M 893.89 496.80 L 892.18 504.40 L 890.88 512.10 L 890.78 516.00 L 891.18 519.90 L 892.59 522.80 L 901.31 536.30 L 901.41 531.80 L 901.01 527.20 L 900.21 522.70 L 898.10 514.70 L 896.60 503.70 L 895.09 499.00 L 893.89 496.80 Z M 903.42 507.80 L 903.32 510.70 L 903.82 513.60 L 906.13 522.00 L 907.13 528.20 L 906.73 534.70 L 904.62 544.40 L 909.24 554.20 L 910.44 547.90 L 911.75 535.40 L 911.75 525.90 L 911.24 516.40 L 910.14 506.90 L 908.74 497.50 L 904.42 505.10 L 903.42 507.80 Z M 681.13 551.30 L 679.62 566.10 L 678.02 595.70 L 686.54 594.80 L 688.15 574.10 L 688.95 569.00 L 702.89 513.90 L 690.05 531.70 L 687.15 536.20 L 683.13 544.30 L 681.13 551.30 Z M 926.99 551.50 L 935.52 552.90 L 939.93 553.30 L 944.35 553.30 L 948.66 552.80 L 952.77 551.70 L 955.38 550.60 L 960.20 547.30 L 962.90 544.40 L 965.11 541.20 L 966.72 537.80 L 968.02 534.20 L 969.63 526.50 L 970.63 514.90 L 962.30 519.50 L 954.18 524.70 L 943.95 532.50 L 939.23 536.80 L 934.82 541.40 L 930.80 546.20 L 926.99 551.50 Z M 255.20 523.40 L 251.69 529.30 L 250.28 532.50 L 249.38 535.70 L 249.18 540.20 L 258.81 586.90 L 261.62 601.80 L 281.48 598.70 L 281.58 546.60 L 281.38 543.20 L 280.78 539.90 L 279.78 536.70 L 278.27 533.60 L 276.47 530.70 L 274.36 528.10 L 271.85 525.90 L 269.04 524.10 L 265.83 522.60 L 260.12 521.10 L 257.11 521.50 L 255.20 523.40 Z M 732.29 529.10 L 727.07 535.50 L 722.36 542.20 L 718.14 549.30 L 713.03 560.50 L 709.31 572.10 L 708.01 578.20 L 707.21 584.20 L 706.81 590.40 L 706.91 596.60 L 685.54 600.50 L 653.44 605.40 L 642.71 607.40 L 642.41 622.50 L 693.97 620.80 L 723.76 619.00 L 727.57 618.10 L 731.18 616.80 L 734.69 615.10 L 741.41 610.80 L 750.54 603.20 L 761.28 592.50 L 766.19 586.70 L 770.61 580.60 L 773.21 576.30 L 775.42 571.80 L 777.33 567.00 L 778.93 555.80 L 779.03 544.50 L 778.43 537.00 L 777.33 529.50 L 775.82 522.10 L 753.35 521.80 L 745.83 522.00 L 743.22 522.40 L 738.41 524.30 L 735.20 526.50 L 732.29 529.10 Z M 857.58 528.80 L 858.38 536.60 L 859.08 540.50 L 860.29 544.20 L 861.39 546.50 L 862.79 548.60 L 864.60 550.60 L 866.30 551.90 L 869.92 553.60 L 872.92 554.40 L 882.25 555.10 L 879.04 549.90 L 875.53 545.00 L 871.52 540.40 L 867.21 536.20 L 862.59 532.30 L 857.58 528.80 Z M 901.11 549.50 L 900.51 574.50 L 900.41 649.50 L 913.15 649.50 L 913.25 613.40 L 912.75 595.40 L 911.44 589.60 L 907.13 566.10 L 905.63 560.40 L 903.62 554.90 L 901.11 549.50 Z M 407.47 556.50 L 396.74 565.50 L 365.14 593.00 L 381.79 593.40 L 390.12 592.90 L 412.39 574.50 L 434.36 555.60 L 416.30 555.30 L 411.79 555.60 L 407.47 556.50 Z M 913.35 569.50 L 914.35 564.30 L 914.96 559.00 L 915.16 553.70 L 913.95 556.20 L 912.85 561.40 L 912.75 565.40 L 913.35 569.50 Z M 247.07 558.30 L 244.57 590.20 L 240.86 660.00 L 241.06 665.60 L 241.56 671.30 L 243.76 682.40 L 245.47 687.90 L 280.78 687.70 L 284.39 684.60 L 292.32 679.30 L 317.39 665.50 L 325.12 659.90 L 328.73 656.70 L 332.64 652.50 L 339.76 643.30 L 342.87 638.40 L 345.58 633.20 L 347.89 628.00 L 323.31 628.10 L 298.84 627.30 L 286.60 626.20 L 274.46 624.60 L 269.54 623.20 L 265.13 620.70 L 261.52 617.10 L 260.22 615.00 L 258.31 610.30 L 254.10 593.00 L 247.07 558.30 Z M 782.94 568.20 L 779.03 688.00 L 793.58 687.80 L 793.58 663.40 L 794.18 647.20 L 795.08 639.10 L 796.69 629.90 L 798.79 620.80 L 801.50 611.80 L 804.81 603.00 L 808.62 594.40 L 814.04 584.60 L 816.65 582.40 L 819.06 581.40 L 826.88 579.80 L 826.88 568.20 L 782.94 568.20 Z M 182.77 568.30 L 183.08 577.80 L 187.89 581.30 L 190.00 583.40 L 191.60 585.90 L 194.31 591.20 L 198.62 602.20 L 201.23 610.70 L 203.44 619.40 L 204.74 626.90 L 205.75 634.50 L 206.35 642.10 L 206.75 653.50 L 206.55 687.90 L 239.15 687.90 L 237.34 680.70 L 236.04 673.40 L 235.24 663.60 L 235.24 658.60 L 240.15 568.20 L 182.77 568.30 Z M 358.12 568.30 L 362.03 587.60 L 384.80 568.30 L 358.12 568.30 Z M 399.15 593.30 L 397.04 595.10 L 395.14 597.30 L 390.12 604.00 L 388.21 605.90 L 385.10 607.80 L 383.20 608.50 L 380.59 612.20 L 377.68 615.70 L 374.47 618.80 L 370.86 621.50 L 368.25 622.90 L 362.43 624.70 L 366.85 632.90 L 418.61 636.20 L 425.53 637.90 L 428.84 639.20 L 434.86 642.90 L 437.57 645.20 L 439.98 647.80 L 441.98 650.70 L 443.99 654.60 L 445.49 658.50 L 446.60 662.60 L 447.70 668.80 L 448.20 675.20 L 448.60 688.00 L 547.91 687.90 L 549.52 670.50 L 550.72 664.80 L 551.82 661.20 L 553.43 657.70 L 555.44 654.30 L 558.04 651.00 L 560.95 648.20 L 564.26 645.80 L 567.77 643.80 L 571.49 642.20 L 575.40 641.00 L 583.52 639.60 L 667.89 639.40 L 668.89 627.70 L 639.50 628.50 L 618.13 630.60 L 606.70 631.30 L 597.77 630.70 L 593.35 629.80 L 589.14 628.40 L 584.93 626.50 L 582.62 625.00 L 580.81 623.20 L 574.70 614.30 L 571.08 610.40 L 534.97 579.70 L 533.67 577.40 L 533.37 575.50 L 533.57 573.50 L 534.47 571.70 L 535.87 570.10 L 546.61 569.60 L 579.11 569.50 L 593.35 581.60 L 609.40 594.30 L 612.61 595.40 L 617.83 595.60 L 626.76 591.70 L 635.89 588.30 L 654.44 582.30 L 673.20 577.10 L 673.70 567.90 L 629.17 568.20 L 562.36 567.80 L 429.84 568.40 L 424.53 572.10 L 419.31 576.20 L 399.15 593.30 Z M 540.09 575.90 L 569.58 601.40 L 579.21 610.10 L 595.76 609.50 L 604.09 608.40 L 612.21 606.80 L 608.50 602.40 L 600.17 594.60 L 582.12 579.70 L 576.90 576.30 L 564.66 575.70 L 540.09 575.90 Z M 354.01 578.30 L 353.41 595.40 L 357.32 592.10 L 354.01 578.30 Z M 155.39 585.00 L 154.29 587.00 L 153.68 589.20 L 153.48 593.90 L 153.58 768.70 L 377.68 768.80 L 375.68 739.80 L 199.53 739.70 L 186.49 593.60 L 185.38 588.20 L 183.88 585.80 L 181.57 584.80 L 168.43 584.30 L 155.39 585.00 Z M 624.65 598.80 L 628.66 600.10 L 632.58 601.00 L 636.49 601.40 L 642.41 601.30 L 648.43 600.60 L 666.38 597.40 L 672.40 596.70 L 672.90 583.00 L 648.53 590.10 L 640.50 592.70 L 624.65 598.80 Z M 740.31 618.60 L 734.89 621.60 L 727.57 623.90 L 722.96 624.70 L 713.63 625.70 L 712.12 656.80 L 710.92 688.00 L 773.01 687.90 L 776.62 581.90 L 771.61 588.90 L 766.09 595.60 L 760.27 602.00 L 753.95 608.00 L 747.33 613.50 L 740.31 618.60 Z M 814.14 601.60 L 807.62 670.70 L 800.60 739.70 L 602.38 739.70 L 600.78 768.70 L 846.54 768.70 L 846.64 595.40 L 846.04 589.40 L 845.14 586.40 L 833.10 585.90 L 821.16 586.70 L 819.66 587.30 L 817.45 589.00 L 816.35 590.80 L 815.14 595.10 L 814.14 601.60 Z M 353.51 601.50 L 368.35 602.10 L 373.17 601.70 L 376.38 601.20 L 379.49 600.20 L 382.50 598.80 L 372.57 597.90 L 367.65 597.80 L 362.73 598.20 L 359.52 598.90 L 356.52 600.00 L 353.51 601.50 Z M 615.02 601.30 L 616.53 605.60 L 616.73 607.80 L 616.43 609.90 L 615.82 611.10 L 614.82 612.20 L 613.32 613.20 L 610.21 614.30 L 603.69 615.50 L 583.52 616.60 L 587.23 620.90 L 590.34 623.00 L 597.07 624.80 L 601.98 625.50 L 607.00 625.70 L 614.42 625.40 L 636.99 622.80 L 637.09 607.60 L 625.85 605.00 L 615.02 601.30 Z M 199.93 687.30 L 200.73 666.30 L 200.63 645.20 L 199.83 634.70 L 198.52 624.30 L 195.51 610.70 L 193.31 603.90 L 198.02 659.50 L 199.93 687.30 Z M 262.92 607.80 L 265.43 612.20 L 268.64 616.10 L 271.55 617.80 L 273.36 618.30 L 286.50 620.30 L 293.22 620.90 L 323.31 622.40 L 328.73 621.80 L 332.84 620.00 L 284.99 608.40 L 281.38 607.60 L 277.67 607.20 L 273.96 607.10 L 262.92 607.80 Z M 335.85 619.00 L 333.74 622.70 L 350.70 621.20 L 360.03 619.60 L 366.95 617.00 L 370.06 615.20 L 372.97 612.80 L 375.68 609.90 L 358.42 612.80 L 360.83 606.60 L 354.31 609.00 L 347.89 611.80 L 341.67 615.10 L 335.85 619.00 Z M 807.22 612.20 L 804.81 620.70 L 802.81 629.20 L 801.20 637.80 L 800.10 646.50 L 799.40 655.20 L 799.19 664.00 L 799.30 672.80 L 799.80 681.50 L 801.90 670.10 L 803.31 658.60 L 807.22 612.20 Z M 354.21 626.70 L 353.51 627.70 L 353.31 628.90 L 353.51 630.10 L 355.01 632.10 L 356.01 632.60 L 357.12 632.70 L 358.32 632.20 L 359.02 631.10 L 358.92 628.80 L 357.52 626.80 L 356.52 626.30 L 355.41 626.20 L 354.21 626.70 Z M 684.54 626.90 L 682.73 642.50 L 707.11 642.40 L 707.71 625.90 L 684.54 626.90 Z M 325.82 666.70 L 320.00 670.60 L 313.98 674.10 L 295.43 684.10 L 289.41 687.70 L 378.18 688.00 L 385.91 809.00 L 425.33 809.00 L 425.43 680.00 L 425.03 670.80 L 424.63 666.10 L 423.83 661.60 L 421.72 655.90 L 420.21 653.20 L 416.30 648.60 L 411.59 645.10 L 406.17 642.60 L 401.86 641.40 L 373.57 638.90 L 349.59 638.00 L 342.87 648.60 L 339.16 653.60 L 335.15 658.30 L 330.74 662.70 L 325.82 666.70 Z M 419.01 641.40 L 425.33 650.50 L 427.14 653.70 L 428.54 657.00 L 429.44 660.60 L 430.85 672.00 L 431.25 695.10 L 431.25 808.90 L 438.87 808.90 L 442.18 717.10 L 442.68 686.50 L 442.28 670.00 L 440.78 661.90 L 439.47 658.10 L 437.67 654.50 L 435.26 651.00 L 433.05 648.60 L 430.55 646.70 L 424.93 643.70 L 419.01 641.40 Z M 560.25 657.20 L 557.24 663.20 L 555.13 671.30 L 554.53 676.30 L 553.93 686.40 L 553.53 809.20 L 593.15 809.00 L 598.97 687.90 L 704.40 688.00 L 706.51 648.10 L 685.04 648.30 L 681.33 648.00 L 666.78 645.40 L 663.17 645.20 L 587.74 645.30 L 582.62 645.50 L 577.40 646.40 L 573.99 647.30 L 567.77 650.20 L 564.97 652.10 L 562.46 654.50 L 560.25 657.20 Z M 876.44 655.50 L 876.44 697.80 L 932.21 697.90 L 932.31 655.40 L 876.44 655.50 Z M 205.85 694.70 L 205.95 733.20 L 375.37 733.20 L 372.67 694.50 L 205.85 694.70 Z M 447.40 733.30 L 547.91 733.30 L 548.01 694.60 L 448.50 694.60 L 447.40 733.30 Z M 602.38 733.20 L 794.28 733.30 L 794.28 694.60 L 604.29 694.60 L 602.38 733.20 Z M 876.44 703.60 L 876.34 802.00 L 932.31 802.10 L 932.41 704.00 L 876.44 703.60 Z M 447.30 739.80 L 446.19 768.70 L 547.51 768.70 L 547.71 739.80 L 447.30 739.80 Z M 183.18 775.30 L 183.18 845.60 L 207.15 845.70 L 207.55 810.50 L 207.55 775.30 L 183.18 775.30 Z M 233.03 775.10 L 216.18 845.50 L 389.72 845.60 L 389.22 838.00 L 389.12 830.50 L 390.12 815.30 L 381.09 815.10 L 377.78 775.20 L 233.03 775.10 Z M 445.99 775.20 L 444.29 811.70 L 443.69 813.80 L 441.88 817.80 L 441.88 821.10 L 442.48 823.90 L 443.39 826.50 L 446.40 831.30 L 448.30 833.40 L 461.04 845.60 L 508.49 845.60 L 501.17 775.30 L 445.99 775.20 Z M 523.54 775.30 L 518.52 840.30 L 526.45 836.00 L 539.18 830.50 L 543.10 828.50 L 546.81 826.00 L 550.12 823.10 L 552.02 820.90 L 553.63 818.30 L 555.03 815.30 L 547.21 814.70 L 547.51 775.20 L 523.54 775.30 Z M 600.48 775.20 L 596.96 845.70 L 796.29 845.60 L 791.17 775.20 L 600.48 775.20 Z M 797.29 775.10 L 802.20 845.70 L 808.62 845.60 L 808.52 775.10 L 797.29 775.10 Z M 876.34 808.10 L 876.44 845.60 L 932.31 845.70 L 932.31 808.20 L 876.34 808.10 Z M 395.84 815.30 L 395.64 828.40 L 399.55 831.50 L 406.57 835.90 L 412.69 838.30 L 415.90 839.00 L 419.21 839.30 L 422.62 839.20 L 419.71 835.70 L 417.30 832.00 L 415.20 828.10 L 412.09 819.70 L 410.99 815.30 L 395.84 815.30 Z M 417.00 815.40 L 420.82 825.70 L 423.93 830.30 L 425.73 832.10 L 429.84 835.10 L 433.25 836.80 L 436.97 838.10 L 444.39 840.20 L 441.78 836.50 L 439.57 832.60 L 437.87 828.50 L 436.56 824.30 L 435.86 819.90 L 435.76 815.40 L 417.00 815.40 Z M 548.01 832.30 L 543.90 834.60 L 530.96 840.30 L 526.85 842.50 L 522.83 845.10 L 539.89 845.50 L 591.05 845.40 L 592.65 815.30 L 561.55 815.30 L 557.84 821.60 L 553.53 827.60 L 551.02 830.20 L 548.01 832.30 Z M 395.64 838.30 L 394.94 839.30 L 394.43 842.30 L 395.34 844.40 L 396.94 845.00 L 397.64 844.00 L 398.04 842.50 L 398.04 840.90 L 397.24 838.80 L 395.64 838.30 Z M 400.95 841.40 L 403.16 845.40 L 411.79 845.50 L 437.47 845.00 L 435.26 843.90 L 433.05 843.20 L 427.44 843.10 L 417.20 844.70 L 413.09 844.20 L 400.95 841.40 Z M 444.39 845.40 L 445.39 846.10 L 448.40 846.60 L 450.51 845.90 L 451.11 844.30 L 450.11 843.50 L 448.70 843.10 L 447.10 843.00 L 444.99 843.80 L 444.39 845.40 Z" fill="#1d2450" fill-rule="nonzero" node-id="231" stroke="none" target-height="525.2007" target-width="963.0001" target-x="30.499966" target-y="327.39963"></path><path d="M 417.30 815.40 L 436.00 815.40 L 436.10 819.90 L 436.80 824.30 L 438.10 828.50 L 439.80 832.60 L 442.00 836.50 L 444.60 840.20 L 437.20 838.10 L 433.50 836.80 L 430.10 835.10 L 426.00 832.10 L 424.20 830.30 L 421.10 825.70 L 417.30 815.40 Z" fill="#fffefe" fill-rule="nonzero" node-id="233" stroke="none" target-height="24.799988" target-width="27.300018" target-x="417.3" target-y="815.4"></path><path d="M 407.80 556.50 L 412.10 555.60 L 416.60 555.30 L 434.60 555.60 L 412.70 574.50 L 390.50 592.90 L 382.20 593.40 L 365.60 593.00 L 397.10 565.50 L 407.80 556.50 Z" fill="#5c79c1" fill-rule="nonzero" node-id="235" stroke="none" target-height="38.100037" target-width="69" target-x="365.6" target-y="555.3"></path><path d="M 547.90 832.30 L 550.90 830.20 L 553.40 827.60 L 557.70 821.60 L 561.40 815.30 L 592.40 815.30 L 590.80 845.40 L 539.80 845.50 L 522.80 845.10 L 526.80 842.50 L 530.90 840.30 L 543.80 834.60 L 547.90 832.30 Z" fill="#5c79c1" fill-rule="nonzero" node-id="237" stroke="none" target-height="30.200012" target-width="69.60004" target-x="522.8" target-y="815.3"></path><path d="M 540.00 575.90 L 564.50 575.70 L 576.70 576.30 L 581.90 579.70 L 599.90 594.60 L 608.20 602.40 L 611.90 606.80 L 603.80 608.40 L 595.50 609.50 L 579.00 610.10 L 569.40 601.40 L 540.00 575.90 Z" fill="#5a77c0" fill-rule="nonzero" node-id="239" stroke="none" target-height="34.399963" target-width="71.900024" target-x="540" target-y="575.7"></path><path d="M 354.00 601.50 L 357.00 600.00 L 360.00 598.90 L 363.20 598.20 L 368.10 597.80 L 373.00 597.90 L 382.90 598.80 L 379.90 600.20 L 376.80 601.20 L 373.60 601.70 L 368.80 602.10 L 354.00 601.50 Z" fill="#3b4982" fill-rule="nonzero" node-id="241" stroke="none" target-height="4.299988" target-width="28.899994" target-x="354" target-y="597.8"></path><path d="M 200.90 687.30 L 199.00 659.50 L 194.30 603.90 L 198.20 617.50 L 199.50 624.30 L 200.80 634.70 L 201.60 645.20 L 201.80 655.70 L 200.90 687.30 Z" fill="#fbfbfe" fill-rule="nonzero" node-id="243" stroke="none" target-height="83.39996" target-width="7.5" target-x="194.3" target-y="603.9"></path><path d="M 419.30 641.40 L 425.20 643.70 L 430.80 646.70 L 433.30 648.60 L 435.50 651.00 L 437.90 654.50 L 439.70 658.10 L 441.00 661.90 L 442.50 670.00 L 442.90 686.50 L 442.40 717.10 L 439.10 808.90 L 431.50 808.90 L 431.50 695.10 L 431.10 672.00 L 429.70 660.60 L 428.80 657.00 L 427.40 653.70 L 425.60 650.50 L 419.30 641.40 Z" fill="#5875be" fill-rule="nonzero" node-id="245" stroke="none" target-height="167.5" target-width="23.600006" target-x="419.3" target-y="641.4"></path><path d="M 723.40 643.90 L 753.40 643.60 L 769.70 644.00 L 770.50 644.50 L 771.10 645.50 L 771.40 646.70 L 771.20 647.90 L 770.70 648.90 L 769.40 649.50 L 746.00 649.70 L 722.60 649.40 L 721.90 648.90 L 721.40 647.90 L 721.30 645.50 L 721.70 644.50 L 722.40 643.90 L 723.40 643.90 Z" fill="#212551" fill-rule="nonzero" node-id="247" stroke="none" target-height="6.1000366" target-width="50.100037" target-x="721.3" target-y="643.6"></path><path d="M 560.10 657.20 L 562.30 654.50 L 564.80 652.10 L 567.60 650.20 L 573.80 647.30 L 577.20 646.40 L 582.40 645.50 L 587.50 645.30 L 662.70 645.20 L 666.30 645.40 L 680.80 648.00 L 684.50 648.30 L 705.90 648.10 L 703.80 688.00 L 598.70 687.90 L 592.90 809.00 L 553.40 809.20 L 553.80 686.40 L 554.40 676.30 L 555.00 671.30 L 557.10 663.20 L 560.10 657.20 Z" fill="#5b78c0" fill-rule="nonzero" node-id="249" stroke="none" target-height="164" target-width="152.5" target-x="553.4" target-y="645.2"></path><path d="M 401.30 841.40 L 413.40 844.20 L 417.50 844.70 L 427.70 843.10 L 431.10 843.00 L 435.50 843.90 L 437.70 845.00 L 412.10 845.50 L 403.50 845.40 L 401.30 841.40 Z" fill="#5b78c0" fill-rule="nonzero" node-id="251" stroke="none" target-height="4.0999756" target-width="36.400024" target-x="401.3" target-y="841.4"></path><path d="M 396.00 838.30 L 397.60 838.80 L 398.40 840.90 L 398.40 842.50 L 398.00 844.00 L 397.30 845.00 L 395.70 844.40 L 394.80 842.30 L 395.30 839.30 L 396.00 838.30 Z" fill="#656e9e" fill-rule="nonzero" node-id="253" stroke="none" target-height="6.700012" target-width="3.600006" target-x="394.8" target-y="838.3"></path><path d="M 444.60 845.40 L 444.80 844.50 L 445.90 843.30 L 447.30 843.00 L 448.90 843.10 L 450.30 843.50 L 451.30 844.30 L 451.20 845.20 L 450.00 846.30 L 448.60 846.60 L 447.10 846.60 L 445.60 846.10 L 444.60 845.40 Z" fill="#5e6ca2" fill-rule="nonzero" node-id="255" stroke="none" target-height="3.5999756" target-width="6.6999817" target-x="444.6" target-y="843"></path></svg>