<?xml version="1.0" standalone="no"?><!DOCTYPE svg PUBLIC "-//W3C//DTD SVG 1.1//EN" "http://www.w3.org/Graphics/SVG/1.1/DTD/svg11.dtd"><svg height="1009" node-id="1" sillyvg="true" template-height="1009" template-width="981" version="1.1" viewBox="0 0 981 1009" width="981" xmlns="http://www.w3.org/2000/svg" xmlns:xlink="http://www.w3.org/1999/xlink"><defs node-id="38"></defs><g node-id="98"><path d="M 968.20 518.90 L 968.00 534.10 L 967.30 549.20 L 966.10 564.30 L 964.40 579.20 L 962.30 594.10 L 959.70 608.90 L 956.60 623.60 L 953.10 638.10 L 949.20 652.50 L 944.80 666.70 L 939.90 680.90 L 934.70 694.80 L 929.00 708.60 L 922.80 722.20 L 916.20 735.60 L 909.30 748.80 L 901.90 761.80 L 894.10 774.50 L 885.90 787.10 L 877.20 799.40 L 868.20 811.40 L 858.80 823.10 L 849.10 834.60 L 838.90 845.80 L 828.30 856.80 L 817.30 867.40 L 806.10 877.50 L 794.60 887.30 L 782.90 896.70 L 770.90 905.70 L 758.60 914.40 L 746.00 922.60 L 733.30 930.40 L 720.30 937.80 L 707.10 944.70 L 693.70 951.30 L 680.10 957.40 L 666.30 963.10 L 652.40 968.40 L 638.30 973.30 L 624.00 977.70 L 609.60 981.60 L 595.10 985.10 L 580.40 988.20 L 565.60 990.80 L 550.70 992.90 L 535.80 994.60 L 520.70 995.80 L 505.60 996.50 L 490.40 996.70 L 475.10 996.50 L 460.00 995.80 L 445.00 994.60 L 430.00 992.90 L 415.20 990.80 L 400.40 988.20 L 385.70 985.10 L 371.20 981.60 L 356.80 977.70 L 342.50 973.30 L 328.40 968.40 L 314.40 963.10 L 300.70 957.40 L 287.10 951.30 L 273.60 944.70 L 260.40 937.80 L 247.50 930.40 L 234.70 922.60 L 222.20 914.40 L 209.90 905.70 L 197.90 896.70 L 186.10 887.30 L 174.60 877.50 L 163.40 867.40 L 152.50 856.80 L 141.90 845.80 L 131.70 834.60 L 121.90 823.10 L 112.50 811.40 L 103.50 799.40 L 94.90 787.10 L 86.70 774.50 L 78.90 761.80 L 71.50 748.80 L 64.50 735.60 L 57.90 722.20 L 51.80 708.60 L 46.10 694.80 L 40.80 680.90 L 36.00 666.70 L 31.60 652.50 L 27.60 638.10 L 24.10 623.60 L 21.10 608.90 L 18.50 594.10 L 16.40 579.20 L 14.70 564.30 L 13.50 549.20 L 12.80 534.10 L 12.50 518.90 L 12.80 503.60 L 13.50 488.50 L 14.70 473.50 L 16.40 458.50 L 18.50 443.70 L 21.10 428.90 L 24.10 414.20 L 27.60 399.70 L 31.60 385.30 L 36.00 371.00 L 40.80 356.90 L 46.10 342.90 L 51.80 329.10 L 57.90 315.60 L 64.50 302.10 L 71.50 288.90 L 78.90 276.00 L 86.70 263.20 L 94.90 250.70 L 103.50 238.40 L 112.50 226.30 L 121.90 214.60 L 131.70 203.10 L 141.90 191.90 L 152.50 181.00 L 163.40 170.40 L 174.60 160.20 L 186.10 150.40 L 197.90 141.00 L 209.90 132.00 L 222.20 123.40 L 234.70 115.20 L 247.50 107.40 L 260.40 100.00 L 273.60 93.00 L 287.10 86.40 L 300.70 80.30 L 314.40 74.60 L 328.40 69.30 L 342.50 64.50 L 356.80 60.10 L 371.20 56.10 L 385.70 52.60 L 400.40 49.60 L 415.20 47.00 L 430.00 44.80 L 445.00 43.20 L 460.00 42.00 L 475.10 41.30 L 490.40 41.00 L 505.60 41.30 L 520.70 42.00 L 535.80 43.20 L 550.70 44.80 L 565.60 47.00 L 580.40 49.60 L 595.10 52.60 L 609.60 56.10 L 624.00 60.10 L 638.30 64.50 L 652.40 69.30 L 666.30 74.60 L 680.10 80.30 L 693.70 86.40 L 707.10 93.00 L 720.30 100.00 L 733.30 107.40 L 746.00 115.20 L 758.60 123.40 L 770.90 132.00 L 782.90 141.00 L 794.60 150.40 L 806.10 160.20 L 817.30 170.40 L 828.30 181.00 L 838.90 191.90 L 849.10 203.10 L 858.80 214.60 L 868.20 226.30 L 877.20 238.40 L 885.90 250.70 L 894.10 263.20 L 901.90 276.00 L 909.30 288.90 L 916.30 302.10 L 922.80 315.60 L 929.00 329.10 L 934.70 342.90 L 939.90 356.90 L 944.80 371.00 L 949.20 385.30 L 953.10 399.70 L 956.60 414.20 L 959.70 428.90 L 962.30 443.70 L 964.40 458.50 L 966.10 473.50 L 967.30 488.50 L 968.00 503.60 L 968.20 518.90 Z" fill="#8bbee6" fill-rule="nonzero" group-id="1" node-id="42" stroke="#ffffff" stroke-linecap="butt" stroke-width="24.42" target-height="955.7" target-width="955.7" target-x="12.5" target-y="41"></path><path d="M 490.40 1009.30 L 472.80 1008.90 L 455.50 1008.00 L 438.40 1006.50 L 421.40 1004.40 L 404.70 1001.70 L 387.90 998.40 L 371.50 994.60 L 355.20 990.20 L 339.20 985.40 L 323.40 979.90 L 307.80 973.90 L 292.40 967.50 L 277.40 960.50 L 262.60 953.00 L 248.10 945.10 L 233.80 936.60 L 219.90 927.80 L 206.30 918.40 L 193.00 908.60 L 180.00 898.40 L 167.40 887.70 L 155.20 876.60 L 143.30 865.20 L 131.90 853.30 L 120.80 841.00 L 110.10 828.30 L 99.90 815.30 L 90.00 801.90 L 80.70 788.10 L 71.70 774.00 L 63.20 759.60 L 55.30 744.90 L 47.80 729.80 L 40.80 714.40 L 34.30 698.70 L 28.30 682.80 L 22.90 666.60 L 18.00 650.10 L 13.70 633.30 L 9.90 616.10 L 6.70 598.90 L 4.20 581.70 L 2.20 564.60 L 0.90 547.60 L 0.20 530.60 L 0.10 513.60 L 0.60 496.70 L 1.60 479.90 L 3.20 463.20 L 5.40 446.70 L 8.10 430.10 L 11.40 413.80 L 15.30 397.70 L 19.60 381.70 L 24.50 365.90 L 30.00 350.20 L 35.90 334.80 L 42.40 319.60 L 49.30 304.70 L 56.80 289.90 L 64.70 275.40 L 73.10 261.20 L 82.00 247.40 L 91.40 233.70 L 101.20 220.40 L 111.50 207.40 L 122.20 194.80 L 133.40 182.50 L 145.00 170.60 L 157.10 159.00 L 169.50 147.80 L 182.40 137.10 L 195.60 126.80 L 209.30 116.80 L 223.50 107.30 L 237.90 98.30 L 252.70 89.80 L 267.90 81.70 L 283.50 74.10 L 299.50 67.00 L 315.80 60.50 L 332.20 54.50 L 348.70 49.20 L 365.20 44.60 L 381.90 40.50 L 398.80 37.00 L 415.60 34.10 L 432.50 31.80 L 449.40 30.00 L 466.40 28.90 L 483.40 28.40 L 500.40 28.40 L 517.30 29.10 L 534.10 30.30 L 551.00 32.10 L 567.80 34.50 L 584.40 37.40 L 601.00 41.00 L 617.50 45.10 L 633.80 49.80 L 650.00 55.00 L 666.00 60.80 L 681.80 67.20 L 697.40 74.20 L 712.90 81.70 L 728.00 89.70 L 742.90 98.30 L 757.60 107.50 L 772.10 117.30 L 786.30 127.60 L 800.10 138.50 L 813.40 149.70 L 826.20 161.30 L 838.60 173.30 L 850.40 185.70 L 861.90 198.60 L 872.80 211.70 L 883.30 225.20 L 893.20 239.00 L 902.70 253.10 L 911.60 267.60 L 920.10 282.30 L 928.00 297.20 L 935.40 312.50 L 942.20 328.00 L 948.60 343.70 L 954.30 359.60 L 959.60 375.70 L 964.20 392.00 L 968.30 408.50 L 971.90 425.20 L 974.80 441.90 L 977.20 458.80 L 979.00 475.80 L 980.20 493.00 L 980.80 510.10 L 980.80 527.30 L 980.20 544.60 L 979.00 562.00 L 977.10 579.50 L 974.60 596.90 L 971.60 614.00 L 967.90 630.90 L 963.70 647.60 L 958.90 664.10 L 953.50 680.50 L 947.60 696.50 L 941.20 712.30 L 934.20 727.80 L 926.70 743.00 L 918.60 758.00 L 910.10 772.70 L 901.10 787.00 L 891.60 801.00 L 881.60 814.70 L 871.20 828.10 L 860.30 841.00 L 848.90 853.60 L 837.10 865.80 L 824.90 877.60 L 812.30 889.00 L 799.30 899.90 L 785.80 910.40 L 772.00 920.50 L 757.70 930.10 L 743.20 939.20 L 728.30 947.80 L 713.00 956.00 L 697.30 963.60 L 681.30 970.70 L 666.00 976.80 L 650.70 982.50 L 635.20 987.50 L 619.50 992.10 L 603.70 996.10 L 587.80 999.60 L 571.70 1002.60 L 555.60 1005.00 L 539.40 1006.90 L 523.10 1008.20 L 506.80 1009.00 L 490.40 1009.30 Z M 490.40 53.50 L 473.70 53.90 L 457.30 54.70 L 441.00 56.20 L 425.00 58.20 L 409.10 60.70 L 393.20 63.80 L 377.50 67.50 L 362.10 71.60 L 346.90 76.20 L 332.00 81.40 L 317.10 87.10 L 302.60 93.20 L 288.30 99.80 L 274.20 106.90 L 260.50 114.40 L 246.90 122.50 L 233.70 130.90 L 220.80 139.80 L 208.20 149.10 L 195.90 158.80 L 184.00 168.90 L 172.40 179.40 L 161.10 190.30 L 150.20 201.60 L 139.70 213.30 L 129.60 225.30 L 119.90 237.60 L 110.60 250.30 L 101.70 263.40 L 93.20 276.80 L 85.10 290.50 L 77.60 304.40 L 70.50 318.70 L 63.80 333.30 L 57.60 348.30 L 52.00 363.40 L 46.90 378.70 L 42.20 394.40 L 38.10 410.30 L 34.50 426.60 L 31.50 443.00 L 29.10 459.30 L 27.30 475.50 L 26.00 491.60 L 25.30 507.70 L 25.20 523.90 L 25.70 539.90 L 26.60 555.90 L 28.20 571.70 L 30.20 587.40 L 32.80 603.10 L 36.00 618.50 L 39.60 633.90 L 43.70 649.00 L 48.40 664.00 L 53.60 678.90 L 59.20 693.50 L 65.30 707.90 L 71.90 722.10 L 79.00 736.10 L 86.50 749.80 L 94.50 763.30 L 102.90 776.50 L 111.80 789.40 L 121.20 802.10 L 130.90 814.40 L 141.10 826.40 L 151.70 838.00 L 162.70 849.30 L 174.20 860.30 L 186.00 870.90 L 198.10 881.10 L 210.70 890.90 L 223.70 900.30 L 237.10 909.40 L 250.80 917.90 L 264.80 926.00 L 279.20 933.70 L 294.00 940.90 L 309.30 947.60 L 324.70 953.80 L 340.30 959.50 L 355.90 964.50 L 371.60 968.90 L 387.50 972.80 L 403.40 976.10 L 419.40 978.90 L 435.50 981.10 L 451.50 982.70 L 467.60 983.80 L 483.80 984.30 L 499.80 984.20 L 515.90 983.60 L 531.90 982.50 L 547.90 980.80 L 563.80 978.50 L 579.60 975.70 L 595.40 972.30 L 611.00 968.40 L 626.50 964.00 L 641.80 959.00 L 657.00 953.50 L 672.00 947.40 L 686.80 940.80 L 701.50 933.70 L 715.90 926.10 L 730.00 917.90 L 744.00 909.20 L 757.70 899.90 L 771.10 890.10 L 784.30 879.80 L 796.90 869.20 L 809.10 858.10 L 820.80 846.70 L 832.00 835.00 L 842.90 822.80 L 853.30 810.30 L 863.20 797.50 L 872.60 784.40 L 881.60 771.00 L 890.10 757.30 L 898.10 743.40 L 905.60 729.20 L 912.60 714.70 L 919.10 700.00 L 925.10 685.10 L 930.60 670.00 L 935.60 654.70 L 940.00 639.20 L 943.90 623.60 L 947.30 607.80 L 950.10 591.90 L 952.30 575.90 L 954.00 559.70 L 955.20 543.40 L 955.80 527.20 L 955.80 510.80 L 955.20 494.40 L 954.00 477.90 L 952.30 461.30 L 949.90 444.80 L 947.00 428.60 L 943.50 412.50 L 939.50 396.70 L 935.00 381.00 L 929.90 365.50 L 924.20 350.30 L 918.10 335.30 L 911.50 320.60 L 904.40 306.10 L 896.70 291.90 L 888.70 278.00 L 880.10 264.40 L 871.10 251.10 L 861.60 238.10 L 851.70 225.50 L 841.40 213.20 L 830.60 201.20 L 819.40 189.70 L 807.80 178.40 L 795.80 167.60 L 783.50 157.30 L 770.70 147.30 L 757.60 137.80 L 744.10 128.60 L 730.30 120.00 L 716.10 111.80 L 701.60 104.10 L 686.70 96.90 L 671.50 90.10 L 657.10 84.30 L 642.50 79.00 L 627.80 74.10 L 612.90 69.80 L 597.90 66.00 L 582.80 62.70 L 567.60 59.90 L 552.30 57.60 L 536.90 55.80 L 521.40 54.50 L 505.90 53.80 L 490.40 53.50 Z" fill="#ffffff" fill-rule="nonzero" group-id="1" node-id="44" stroke="none" target-height="980.89996" target-width="980.7" target-x="0.1" target-y="28.4"></path><path d="M 703.10 932.90 L 647.30 718.80 L 646.10 716.60 L 641.60 710.60 L 634.80 704.30 L 630.70 701.20 L 618.70 693.80 L 611.80 690.20 L 603.30 686.40 L 593.10 682.20 L 597.60 685.50 L 602.10 689.40 L 606.70 694.10 L 612.70 702.10 L 615.60 706.90 L 620.80 717.60 L 623.00 723.50 L 624.90 730.20 L 626.70 737.70 L 649.00 937.30 L 650.60 957.10 L 656.80 954.80 L 686.90 941.60 L 698.20 935.90 L 703.10 932.90 Z" fill="#ffffff" fill-rule="nonzero" group-id="1" node-id="46" stroke="none" target-height="274.89996" target-width="110" target-x="593.1" target-y="682.2"></path><path d="M 331.50 955.20 L 331.60 947.10 L 333.40 929.90 L 336.30 905.80 L 340.20 877.00 L 349.30 814.20 L 358.00 759.40 L 361.40 740.60 L 362.90 733.70 L 367.20 718.10 L 370.40 708.90 L 374.90 700.00 L 377.60 695.70 L 381.00 691.30 L 383.80 688.20 L 390.90 682.00 L 399.70 676.30 L 404.80 673.80 L 410.60 671.40 L 417.20 669.10 L 401.20 673.00 L 391.00 676.20 L 374.70 681.80 L 362.20 687.60 L 350.80 694.60 L 341.00 702.40 L 333.80 709.90 L 330.60 714.10 L 327.70 718.70 L 325.20 723.50 L 323.20 728.60 L 321.70 734.10 L 320.70 740.00 L 261.20 922.80 L 274.90 930.40 L 288.80 937.50 L 302.90 944.20 L 317.20 950.30 L 331.80 956.00 L 331.50 955.20 Z" fill="#ffffff" fill-rule="nonzero" group-id="1" node-id="48" stroke="none" target-height="286.90002" target-width="156" target-x="261.2" target-y="669.1"></path><path d="M 626.70 736.00 L 624.90 728.30 L 622.70 721.20 L 620.20 714.90 L 617.50 709.10 L 614.30 703.40 L 610.90 698.30 L 607.30 693.70 L 603.60 689.60 L 598.30 684.40 L 592.80 680.00 L 587.40 676.20 L 581.70 672.80 L 570.90 667.80 L 563.10 665.10 L 556.40 663.30 L 550.30 662.10 L 542.20 661.10 L 491.30 699.70 L 437.20 664.70 L 428.90 666.10 L 421.60 667.80 L 415.20 669.70 L 409.50 671.80 L 398.60 677.00 L 390.30 682.50 L 385.40 686.70 L 381.40 690.80 L 378.10 695.00 L 375.30 699.40 L 373.10 703.60 L 370.00 711.70 L 368.50 718.70 L 368.00 723.40 L 368.00 729.40 L 369.60 737.00 L 373.40 750.00 L 380.30 769.30 L 384.90 780.50 L 390.60 793.10 L 399.50 810.30 L 404.90 819.50 L 410.50 828.40 L 416.70 837.50 L 423.40 846.60 L 430.60 855.40 L 438.40 864.10 L 446.80 872.60 L 453.30 878.50 L 460.50 884.40 L 468.40 890.30 L 485.10 901.40 L 494.10 906.80 L 507.90 914.60 L 522.10 922.00 L 536.60 929.00 L 551.00 935.60 L 579.00 947.40 L 604.60 957.20 L 626.20 964.90 L 650.70 956.70 L 649.00 935.60 Z" fill="#f3f8ff" fill-rule="nonzero" group-id="1" node-id="50" stroke="none" target-height="303.80005" target-width="282.7" target-x="368" target-y="661.1"></path><path d="M 433.80 668.60 L 491.30 699.70 L 492.60 699.00 L 437.20 664.70 L 430.40 665.80 L 417.20 669.10 L 427.70 667.80 L 431.00 667.90 L 433.80 668.60 Z" fill="none" group-id="1" node-id="52" stroke="none" target-height="35" target-width="75.399994" target-x="417.2" target-y="664.7"></path><path d="M 436.70 664.80 L 454.90 743.00 L 490.40 875.40 L 542.20 661.10 L 580.40 692.50 L 541.20 738.20 L 544.20 788.70 L 490.40 875.40 L 440.50 788.70 L 442.90 736.40 L 398.10 700.50 L 436.70 664.80 Z" fill="#ffffff" fill-rule="nonzero" group-id="1" node-id="54" stroke="none" target-height="214.30005" target-width="182.30002" target-x="398.1" target-y="661.1"></path><path d="M 444.30 699.70 L 494.10 698.30 L 531.80 704.20 L 490.40 875.40 L 444.30 699.70 Z" fill="#cddef9" fill-rule="nonzero" group-id="1" node-id="56" stroke="none" target-height="177.10004" target-width="87.5" target-x="444.3" target-y="698.3"></path><path d="M 331.50 955.20 L 331.80 956.00 L 346.10 961.00 L 360.50 965.50 L 375.00 969.50 L 389.50 973.00 L 404.10 976.10 L 418.90 978.70 L 433.70 980.80 L 448.50 982.50 L 463.40 983.70 L 478.30 984.30 L 493.20 984.60 L 508.10 984.30 L 523.00 983.60 L 537.90 982.30 L 552.80 980.60 L 567.60 978.40 L 582.30 975.80 L 597.00 972.60 L 611.60 969.00 L 626.20 964.90 L 592.40 952.70 L 565.30 941.80 L 536.60 929.00 L 522.10 922.00 L 507.90 914.60 L 485.10 901.40 L 468.40 890.30 L 460.50 884.40 L 453.30 878.50 L 446.80 872.60 L 438.40 864.10 L 430.60 855.40 L 423.40 846.60 L 416.70 837.50 L 410.50 828.50 L 404.90 819.50 L 399.50 810.30 L 390.60 793.10 L 384.90 780.50 L 380.30 769.30 L 373.40 750.00 L 369.60 737.00 L 368.00 729.50 L 367.90 725.10 L 368.80 716.50 L 371.10 708.20 L 372.80 704.20 L 370.40 708.90 L 368.70 713.50 L 363.70 730.40 L 361.40 740.60 L 358.00 759.40 L 349.30 814.20 L 340.20 877.00 L 333.40 929.90 L 331.60 947.10 L 331.50 955.20 Z" fill="#dae4ef" fill-rule="nonzero" group-id="1" node-id="58" stroke="none" target-height="280.39996" target-width="294.7" target-x="331.5" target-y="704.2"></path><path d="M 499.90 884.90 L 499.20 888.60 L 497.10 891.70 L 494.00 893.70 L 490.40 894.40 L 486.70 893.70 L 483.60 891.70 L 481.60 888.60 L 480.90 884.90 L 481.60 881.30 L 483.60 878.20 L 486.70 876.10 L 490.40 875.40 L 494.00 876.10 L 497.10 878.20 L 499.20 881.30 L 499.90 884.90 Z" fill="#ffffff" fill-rule="nonzero" group-id="1" node-id="60" stroke="none" target-height="19" target-width="19" target-x="480.9" target-y="875.4"></path><path d="M 499.90 928.70 L 499.70 930.60 L 498.30 934.00 L 495.70 936.70 L 492.20 938.10 L 488.50 938.10 L 485.10 936.70 L 482.50 934.00 L 481.00 930.60 L 481.00 926.90 L 482.50 923.50 L 485.10 920.80 L 488.50 919.40 L 492.30 919.40 L 495.70 920.80 L 498.30 923.50 L 499.70 926.90 L 499.90 928.70 Z" fill="#ffffff" fill-rule="nonzero" group-id="1" node-id="62" stroke="none" target-height="18.699951" target-width="18.899994" target-x="481" target-y="919.4"></path><path d="M 465.30 704.20 L 476.20 739.10 L 470.70 800.60 L 490.40 875.40 L 509.30 799.10 L 499.90 739.70 L 509.30 708.40 L 492.60 693.80 L 465.30 704.20 Z" fill="#1c1c84" fill-rule="nonzero" group-id="1" node-id="64" stroke="none" target-height="181.60004" target-width="44" target-x="465.3" target-y="693.8"></path><path d="M 436.70 664.80 L 492.60 693.80 L 542.20 661.10 L 528.60 717.50 L 492.10 700.30 L 446.70 711.00 L 436.70 664.80 Z" fill="#ffffff" fill-rule="nonzero" group-id="1" node-id="66" stroke="none" target-height="56.400024" target-width="105.5" target-x="436.7" target-y="661.1"></path><path d="M 371.50 886.40 L 437.20 886.40 L 437.20 952.10 L 371.50 952.10 Z" fill="#ffffff" fill-rule="nonzero" group-id="1" node-id="68" stroke="none" target-height="65.69995" target-width="65.70001" target-x="371.5" target-y="886.4"></path><path d="M 548.10 886.40 L 613.80 886.40 L 613.80 952.10 L 548.10 952.10 Z" fill="#ffffff" fill-rule="nonzero" group-id="1" node-id="70" stroke="none" target-height="65.69995" target-width="65.70001" target-x="548.1" target-y="886.4"></path><path d="M 404.50 858.80 L 399.30 827.50 L 396.90 811.90 L 395.00 796.10 L 393.10 775.30 L 392.30 754.30 L 392.50 743.80 L 393.30 733.50 L 394.40 725.10 L 396.20 716.90 L 398.60 708.80 L 401.50 700.90 L 405.10 693.30 L 409.10 685.90 L 416.20 675.50 L 424.50 666.10 L 429.10 661.70 L 433.90 657.70 L 438.90 653.90 L 444.30 650.50 L 449.80 647.50 L 455.30 644.90 L 460.90 642.70 L 466.70 641.00 L 478.50 638.60 L 484.40 638.00 L 496.40 638.00 L 508.30 639.60 L 514.10 641.00 L 519.90 642.70 L 525.60 644.90 L 531.10 647.50 L 536.60 650.50 L 541.90 653.90 L 547.00 657.70 L 551.80 661.70 L 556.30 666.10 L 560.60 670.70 L 568.30 680.60 L 571.70 685.90 L 575.80 693.30 L 579.30 700.90 L 582.30 708.80 L 584.70 716.90 L 586.40 725.10 L 587.60 733.50 L 588.40 744.10 L 588.60 754.70 L 588.40 765.30 L 587.60 775.80 L 586.50 786.40 L 584.90 796.90 L 582.00 812.60 L 578.40 828.10 L 570.10 858.80 L 569.80 860.60 L 570.00 862.10 L 570.60 863.40 L 572.80 865.30 L 575.70 866.10 L 577.20 866.00 L 579.80 864.80 L 580.80 863.60 L 581.60 861.90 L 585.30 848.90 L 591.90 822.60 L 594.60 809.40 L 596.80 796.10 L 598.60 782.80 L 600.10 762.60 L 600.30 752.40 L 599.80 735.20 L 599.00 728.30 L 596.30 714.80 L 594.50 708.10 L 589.80 695.20 L 583.70 682.80 L 580.10 676.90 L 572.10 665.80 L 567.60 660.60 L 562.80 655.60 L 557.60 651.00 L 552.20 646.60 L 546.60 642.60 L 540.80 639.10 L 534.90 636.00 L 528.80 633.30 L 522.50 631.00 L 516.20 629.10 L 509.70 627.70 L 503.20 626.60 L 496.60 626.00 L 490.00 625.80 L 483.40 626.10 L 476.80 626.70 L 470.20 627.80 L 463.70 629.40 L 457.20 631.40 L 450.80 633.80 L 444.60 636.70 L 438.70 639.90 L 433.10 643.50 L 427.70 647.40 L 417.60 656.20 L 408.60 666.10 L 400.70 676.90 L 394.10 688.60 L 390.40 696.80 L 387.20 705.20 L 384.70 713.80 L 383.00 721.70 L 381.70 729.80 L 381.00 737.90 L 380.40 754.20 L 380.60 762.40 L 382.20 786.80 L 385.00 812.00 L 393.00 862.00 L 393.50 863.80 L 394.40 865.00 L 395.50 865.80 L 398.20 866.30 L 399.70 866.10 L 402.40 864.70 L 403.50 863.60 L 404.20 862.20 L 404.60 860.70 L 404.50 858.80 Z" fill="#1e2c3f" fill-rule="nonzero" group-id="1" node-id="72" stroke="none" target-height="240.5" target-width="219.9" target-x="380.4" target-y="625.8"></path><path d="M 373.50 894.70 L 374.20 887.90 L 375.20 884.60 L 376.60 881.40 L 380.20 875.70 L 382.50 873.30 L 385.10 871.20 L 387.90 869.40 L 391.00 868.10 L 394.30 867.30 L 397.90 867.00 L 401.50 867.30 L 404.80 868.10 L 407.80 869.40 L 410.70 871.20 L 413.20 873.30 L 415.60 875.70 L 419.20 881.40 L 420.50 884.60 L 422.10 891.30 L 422.60 896.50 L 423.20 897.90 L 424.20 899.00 L 426.80 900.30 L 429.80 900.30 L 431.20 899.80 L 432.40 899.00 L 433.40 897.90 L 434.00 896.50 L 434.30 894.70 L 434.00 889.60 L 433.10 884.80 L 431.60 880.00 L 429.50 875.40 L 427.00 871.20 L 424.00 867.30 L 418.70 862.20 L 412.50 858.40 L 409.10 856.90 L 405.60 855.90 L 401.80 855.20 L 397.90 855.00 L 393.90 855.20 L 390.20 855.90 L 386.60 856.90 L 383.30 858.40 L 380.10 860.20 L 374.30 864.60 L 371.70 867.30 L 368.70 871.20 L 366.20 875.40 L 364.20 880.00 L 362.70 884.80 L 361.80 889.60 L 361.50 894.70 L 361.70 896.50 L 362.40 897.90 L 363.30 899.00 L 364.60 899.80 L 365.90 900.30 L 369.00 900.30 L 371.60 899.00 L 372.50 897.90 L 373.20 896.50 L 373.50 894.70 Z" fill="#1e2c3f" fill-rule="nonzero" group-id="1" node-id="74" stroke="none" target-height="45.299988" target-width="72.79999" target-x="361.5" target-y="855"></path><path d="M 593.20 877.80 L 593.00 881.60 L 592.30 885.10 L 591.30 888.40 L 589.90 891.50 L 588.10 894.40 L 586.10 897.00 L 583.70 899.30 L 581.10 901.20 L 578.30 902.80 L 575.30 903.90 L 572.10 904.60 L 568.80 904.90 L 565.40 904.60 L 562.30 903.90 L 559.30 902.80 L 556.50 901.20 L 553.90 899.30 L 551.50 897.00 L 549.50 894.40 L 547.70 891.50 L 546.30 888.40 L 545.20 885.10 L 544.60 881.60 L 544.40 877.80 L 544.60 874.10 L 545.20 870.60 L 546.30 867.30 L 547.70 864.20 L 549.50 861.30 L 551.50 858.70 L 553.90 856.40 L 556.50 854.50 L 559.30 852.90 L 562.30 851.80 L 565.40 851.10 L 568.80 850.80 L 572.10 851.10 L 575.30 851.80 L 578.30 852.90 L 581.10 854.50 L 583.70 856.40 L 586.10 858.70 L 588.10 861.30 L 589.90 864.20 L 591.30 867.30 L 592.30 870.60 L 593.00 874.10 L 593.20 877.80 Z" fill="#1e2c3f" fill-rule="nonzero" group-id="1" node-id="76" stroke="none" target-height="54.100037" target-width="48.799988" target-x="544.4" target-y="850.8"></path><path d="M 435.20 629.70 L 437.20 664.70 L 492.60 693.80 L 542.20 661.10 L 544.20 617.90 L 435.20 629.70 Z" fill="#e5afa1" fill-rule="nonzero" group-id="1" node-id="78" stroke="none" target-height="75.89996" target-width="109" target-x="435.2" target-y="617.9"></path><path d="M 728.50 387.40 L 735.00 387.30 L 739.70 387.60 L 744.80 388.20 L 754.20 390.40 L 761.50 393.50 L 764.90 395.60 L 768.00 398.10 L 770.80 401.10 L 772.50 403.60 L 774.00 406.40 L 775.10 409.60 L 775.90 413.20 L 776.30 416.70 L 776.30 420.80 L 775.80 425.50 L 773.80 434.30 L 770.90 443.70 L 766.00 457.30 L 759.00 473.50 L 754.80 482.00 L 746.60 496.20 L 739.10 506.80 L 734.90 511.80 L 730.50 516.40 L 726.00 520.60 L 721.10 524.40 L 716.10 527.60 L 710.80 530.30 L 704.40 531.50 L 699.40 531.90 L 693.90 531.90 L 687.20 531.30 L 686.40 530.90 L 685.70 530.20 L 685.20 528.90 L 685.00 526.70 L 685.00 524.00 L 686.20 515.50 L 687.70 508.20 L 692.60 490.00 L 702.70 458.60 L 710.00 437.50 L 728.50 387.40 Z" fill="#e5afa1" fill-rule="nonzero" group-id="1" node-id="80" stroke="none" target-height="144.60004" target-width="91.29999" target-x="685" target-y="387.3"></path><path d="M 234.50 369.70 L 227.90 369.60 L 223.20 369.90 L 218.20 370.50 L 208.80 372.60 L 201.40 375.70 L 198.00 377.80 L 194.90 380.40 L 192.20 383.40 L 190.40 385.80 L 189.00 388.60 L 187.90 391.80 L 187.00 395.50 L 186.60 399.00 L 186.60 403.10 L 187.10 407.70 L 189.10 416.60 L 192.10 426.00 L 197.00 439.60 L 203.90 455.80 L 208.10 464.20 L 216.30 478.40 L 223.90 489.10 L 228.10 494.10 L 232.40 498.70 L 237.00 502.90 L 241.90 506.70 L 246.90 509.90 L 252.20 512.50 L 258.50 513.70 L 263.60 514.10 L 269.00 514.20 L 275.80 513.50 L 276.60 513.20 L 277.30 512.40 L 278.00 509.00 L 278.00 506.20 L 276.80 497.80 L 275.20 490.50 L 270.30 472.30 L 260.30 440.90 L 253.00 419.80 L 234.50 369.70 Z" fill="#e5afa1" fill-rule="nonzero" group-id="1" node-id="82" stroke="none" target-height="144.6" target-width="91.399994" target-x="186.6" target-y="369.6"></path><path d="M 230.20 339.50 L 234.20 371.10 L 238.90 398.10 L 245.70 430.10 L 250.10 447.60 L 257.00 471.40 L 265.20 495.70 L 274.90 519.90 L 280.30 531.70 L 286.00 543.30 L 292.20 554.50 L 297.10 562.70 L 307.70 578.20 L 313.30 585.50 L 319.20 592.50 L 325.40 599.10 L 331.80 605.30 L 338.40 611.00 L 345.40 616.30 L 352.70 621.10 L 360.20 625.30 L 377.60 633.30 L 393.70 639.40 L 404.30 642.90 L 415.40 646.00 L 428.00 649.10 L 445.60 652.10 L 454.90 653.20 L 464.30 653.90 L 473.70 654.00 L 488.30 653.40 L 501.80 652.10 L 521.80 649.30 L 546.10 644.70 L 559.20 641.50 L 572.90 637.60 L 591.00 631.30 L 599.90 627.60 L 608.70 623.60 L 617.10 619.10 L 625.10 614.30 L 633.20 608.30 L 644.10 598.50 L 655.30 586.60 L 661.00 579.90 L 674.00 562.30 L 680.40 552.60 L 687.10 541.50 L 694.10 528.80 L 699.00 519.20 L 708.90 497.30 L 713.90 484.80 L 718.40 472.60 L 722.90 459.30 L 727.20 445.00 L 731.50 429.50 L 735.30 414.40 L 738.80 398.10 L 742.10 380.60 L 745.20 361.80 L 743.30 346.70 L 742.00 339.50 L 738.00 321.60 L 735.10 311.70 L 731.70 301.60 L 727.60 291.40 L 724.50 284.70 L 717.30 272.00 L 713.10 265.90 L 708.50 260.30 L 703.60 255.20 L 699.60 251.60 L 695.40 248.40 L 691.00 245.50 L 686.20 243.00 L 681.40 240.90 L 676.20 239.30 L 670.60 238.10 L 664.70 237.30 L 659.00 243.90 L 653.90 248.90 L 647.90 254.10 L 639.70 260.30 L 626.90 268.60 L 618.90 273.00 L 610.70 277.00 L 601.40 280.90 L 591.00 284.80 L 583.10 287.30 L 565.50 291.90 L 555.50 293.90 L 545.80 295.40 L 535.30 296.70 L 524.10 297.60 L 512.00 298.20 L 468.50 313.90 L 447.20 298.20 L 401.30 284.40 L 390.30 275.70 L 379.10 267.50 L 366.20 259.20 L 359.40 255.50 L 353.10 252.60 L 348.80 251.10 L 345.00 250.10 L 341.60 249.60 L 339.00 249.60 L 336.80 250.00 L 334.90 250.80 L 333.20 251.90 L 331.90 253.40 L 330.80 255.30 L 330.00 257.90 L 329.60 261.40 L 317.60 263.50 L 312.40 264.10 L 309.20 263.90 L 308.80 263.70 L 308.90 263.30 L 309.50 262.60 L 314.90 259.70 L 289.90 280.00 L 274.70 293.20 L 258.60 308.20 L 243.30 323.90 L 236.20 331.90 L 230.20 339.50 Z" fill="#f4d5c1" fill-rule="nonzero" group-id="1" node-id="84" stroke="none" target-height="416.7" target-width="515" target-x="230.2" target-y="237.3"></path><path d="M 396.90 447.00 L 396.60 450.10 L 396.00 453.10 L 394.90 456.00 L 393.40 458.80 L 391.60 461.30 L 389.30 463.70 L 386.70 465.70 L 383.90 467.40 L 380.90 468.80 L 377.70 469.80 L 374.40 470.40 L 371.00 470.60 L 367.60 470.40 L 364.30 469.80 L 361.10 468.80 L 358.10 467.40 L 355.30 465.70 L 352.70 463.70 L 350.50 461.30 L 348.60 458.80 L 347.10 456.00 L 346.10 453.10 L 345.40 450.10 L 345.20 447.00 L 345.40 443.90 L 346.10 440.90 L 347.10 438.00 L 348.60 435.20 L 350.50 432.70 L 352.70 430.30 L 355.30 428.30 L 358.10 426.60 L 361.10 425.20 L 364.30 424.20 L 367.60 423.60 L 371.00 423.40 L 374.40 423.60 L 377.70 424.20 L 380.90 425.20 L 383.90 426.60 L 386.70 428.30 L 389.30 430.30 L 391.60 432.70 L 393.40 435.20 L 394.90 438.00 L 396.00 440.90 L 396.60 443.90 L 396.90 447.00 Z" fill="#1e2c3f" fill-rule="nonzero" group-id="1" node-id="86" stroke="none" target-height="47.200012" target-width="51.69998" target-x="345.2" target-y="423.4"></path><path d="M 532.40 573.10 L 531.60 577.60 L 529.20 581.90 L 526.90 584.50 L 523.90 587.00 L 520.10 589.50 L 516.10 591.40 L 511.60 593.10 L 506.50 594.50 L 501.40 595.40 L 496.10 596.00 L 490.50 596.20 L 485.00 596.00 L 479.60 595.40 L 474.50 594.50 L 469.50 593.10 L 465.00 591.40 L 460.90 589.50 L 457.10 587.00 L 454.20 584.50 L 451.90 581.90 L 450.40 579.70 L 448.90 575.30 L 448.70 573.10 L 449.50 568.60 L 451.90 564.20 L 454.20 561.60 L 457.10 559.10 L 460.90 556.70 L 465.00 554.80 L 469.50 553.10 L 474.50 551.70 L 479.60 550.70 L 485.00 550.20 L 490.50 550.00 L 496.10 550.20 L 506.50 551.70 L 511.60 553.10 L 516.10 554.80 L 520.10 556.70 L 523.90 559.10 L 526.90 561.60 L 529.20 564.20 L 531.60 568.60 L 532.40 573.10 Z" fill="#dc6965" fill-rule="nonzero" group-id="1" node-id="88" stroke="none" target-height="46.200012" target-width="83.70001" target-x="448.7" target-y="550"></path><path d="M 634.80 447.00 L 634.50 450.20 L 633.80 453.30 L 632.70 456.20 L 631.20 458.90 L 629.40 461.40 L 627.20 463.70 L 622.00 467.40 L 619.00 468.70 L 615.80 469.70 L 612.50 470.40 L 608.90 470.60 L 605.40 470.40 L 602.00 469.70 L 598.80 468.70 L 593.10 465.70 L 588.40 461.40 L 586.60 458.90 L 585.10 456.20 L 584.00 453.30 L 583.30 450.20 L 583.10 447.00 L 583.30 443.80 L 584.00 440.70 L 585.10 437.80 L 586.60 435.10 L 588.40 432.60 L 590.60 430.30 L 593.10 428.30 L 598.80 425.20 L 602.00 424.20 L 605.40 423.60 L 608.90 423.40 L 612.50 423.60 L 615.80 424.20 L 619.00 425.20 L 622.00 426.60 L 627.20 430.30 L 629.40 432.60 L 631.20 435.10 L 632.70 437.80 L 633.80 440.70 L 634.50 443.80 L 634.80 447.00 Z" fill="#1e2c3f" fill-rule="nonzero" group-id="1" node-id="90" stroke="none" target-height="47.200012" target-width="51.700012" target-x="583.1" target-y="423.4"></path><path d="M 273.10 323.90 L 239.00 411.00 L 229.10 344.40 L 225.40 315.50 L 220.60 271.00 L 218.50 243.60 L 217.90 220.50 L 218.20 211.70 L 218.80 206.00 L 219.60 201.90 L 220.60 198.90 L 226.80 185.20 L 234.80 169.00 L 252.30 136.10 L 266.90 109.80 L 278.90 110.00 L 291.30 111.60 L 300.70 113.90 L 305.70 115.60 L 310.60 117.60 L 315.50 120.00 L 320.30 122.80 L 325.00 126.10 L 329.40 129.90 L 333.60 134.30 L 339.00 141.80 L 343.60 151.00 L 345.40 155.80 L 346.90 161.20 L 348.00 167.20 L 348.90 173.80 L 349.20 180.20 L 349.10 187.30 L 348.60 195.10 L 347.50 203.70 L 346.00 211.90 L 344.00 221.00 L 341.20 230.90 L 337.80 241.70 L 295.50 281.30 L 292.40 285.10 L 289.00 290.20 L 282.60 301.80 L 277.10 313.80 L 273.10 323.90 Z" fill="#0b2835" fill-rule="nonzero" group-id="1" node-id="92" stroke="none" target-height="301.2" target-width="131.30002" target-x="217.9" target-y="109.8"></path><path d="M 314.00 264.00 L 324.20 270.60 L 332.90 275.60 L 342.60 280.80 L 355.30 287.00 L 374.10 295.00 L 396.50 303.20 L 408.80 306.90 L 422.10 310.50 L 435.50 313.60 L 449.80 316.30 L 465.00 318.60 L 476.40 319.80 L 488.20 320.70 L 500.40 321.20 L 513.20 321.30 L 525.70 321.00 L 538.70 320.10 L 552.00 318.70 L 565.80 316.80 L 579.30 314.30 L 593.20 311.20 L 607.50 307.40 L 622.10 302.90 L 626.80 301.00 L 631.30 298.80 L 644.50 290.90 L 650.00 288.10 L 656.40 285.40 L 665.30 282.50 L 674.90 280.80 L 679.80 280.50 L 684.70 280.80 L 688.30 281.30 L 695.50 283.50 L 699.00 285.20 L 702.40 287.20 L 705.60 289.70 L 708.90 292.70 L 712.10 296.40 L 714.80 300.20 L 717.50 304.70 L 720.20 310.00 L 722.70 316.10 L 724.70 322.20 L 726.60 329.10 L 728.40 337.10 L 729.90 346.20 L 731.80 364.80 L 734.10 429.40 L 745.00 403.00 L 753.40 380.10 L 762.10 352.60 L 766.40 337.40 L 770.20 321.90 L 773.60 305.70 L 777.20 284.00 L 779.40 262.10 L 779.80 251.40 L 779.80 240.90 L 779.20 230.40 L 778.10 220.30 L 776.40 210.60 L 775.60 194.80 L 773.80 177.70 L 770.30 156.80 L 767.80 145.60 L 764.60 134.00 L 759.40 118.60 L 756.30 111.00 L 752.80 103.50 L 748.90 96.40 L 744.60 89.60 L 741.10 84.60 L 737.40 80.00 L 729.20 71.60 L 724.70 67.80 L 719.90 64.40 L 714.80 61.40 L 709.40 58.70 L 703.90 56.50 L 697.90 54.80 L 691.60 53.60 L 678.90 52.20 L 673.20 51.00 L 667.60 49.30 L 662.20 47.10 L 657.10 44.50 L 647.30 38.10 L 641.70 34.90 L 633.60 31.30 L 624.50 28.70 L 619.70 27.90 L 610.20 27.00 L 605.60 26.00 L 600.80 24.40 L 593.70 21.50 L 570.70 10.20 L 562.60 6.50 L 554.20 3.50 L 548.50 1.80 L 542.70 0.70 L 536.80 0.10 L 532.40 0.00 L 527.80 0.30 L 523.20 1.10 L 506.80 5.10 L 495.00 6.40 L 489.10 6.60 L 464.80 5.60 L 454.50 5.80 L 435.90 7.20 L 420.70 9.70 L 413.20 11.50 L 405.80 13.80 L 398.60 16.40 L 391.60 19.60 L 384.90 23.30 L 373.10 31.30 L 367.80 34.50 L 357.40 39.40 L 347.40 42.90 L 340.00 44.90 L 318.70 49.60 L 311.80 51.50 L 304.90 54.00 L 300.50 56.00 L 291.40 61.50 L 287.00 64.90 L 282.90 68.60 L 279.20 72.70 L 275.80 77.00 L 272.80 81.50 L 270.10 86.30 L 267.90 91.20 L 266.00 96.40 L 264.50 101.70 L 263.50 107.00 L 262.80 112.50 L 262.60 118.20 L 268.30 117.30 L 272.70 117.10 L 277.40 117.30 L 283.00 117.90 L 290.70 119.90 L 294.80 121.50 L 298.70 123.40 L 302.60 125.90 L 306.50 129.10 L 311.80 134.70 L 316.70 142.20 L 320.60 150.90 L 323.80 162.10 L 325.70 174.60 L 326.30 190.30 L 326.00 198.30 L 324.20 217.20 L 322.60 228.20 L 316.70 239.90 L 313.40 248.30 L 312.30 252.30 L 311.60 256.30 L 311.60 259.50 L 312.00 261.50 L 312.80 262.90 L 314.00 264.00 Z" fill="#0f3651" fill-rule="nonzero" group-id="1" node-id="94" stroke="none" target-height="429.4" target-width="517.19995" target-x="262.6" target-y="0"></path><path d="M 420.70 570.00 L 447.70 570.00 L 452.40 566.40 L 456.20 563.90 L 460.50 561.50 L 466.00 559.00 L 474.10 556.30 L 478.80 555.20 L 483.50 554.50 L 488.60 554.20 L 494.00 554.30 L 499.40 555.00 L 505.00 556.20 L 511.10 558.20 L 519.90 562.30 L 529.40 568.50 L 556.20 568.50 L 551.40 562.70 L 542.90 554.00 L 533.00 545.90 L 523.40 539.70 L 518.20 537.00 L 512.70 534.70 L 506.80 532.60 L 497.70 530.60 L 487.80 529.90 L 482.80 530.20 L 477.70 530.90 L 472.40 532.10 L 466.80 533.80 L 461.50 535.90 L 456.00 538.70 L 450.30 542.20 L 444.30 546.40 L 438.80 550.90 L 433.00 556.30 L 427.00 562.60 L 420.70 570.00 Z" fill="#28395e" fill-rule="nonzero" group-id="1" node-id="96" stroke="none" target-height="40.099976" target-width="135.5" target-x="420.7" target-y="529.9"></path></g></svg>